<mxfile host="app.diagrams.net" modified="2021-11-03T13:59:23.504Z" agent="5.0 (Windows NT 10.0; Win64; x64) AppleWebKit/537.36 (KHTML, like Gecko) Chrome/92.0.4515.159 Safari/537.36" etag="ScYHFJ7v3hUiTsGjt0-L" version="15.6.5" type="github" pages="4">
  <diagram id="_3f_FNpX5doXhIQklxcl" name="Page-1">
    <mxGraphModel dx="1221" dy="644" grid="1" gridSize="10" guides="1" tooltips="1" connect="1" arrows="1" fold="1" page="1" pageScale="1" pageWidth="1169" pageHeight="827" math="1" shadow="0">
      <root>
        <mxCell id="0" />
        <mxCell id="1" parent="0" />
        <mxCell id="BkB0qi5VnKzyijiQJOGX-1" value="&lt;font face=&quot;Times New Roman&quot; style=&quot;font-size: 15px&quot;&gt;Original Data&lt;/font&gt;" style="rounded=0;whiteSpace=wrap;html=1;fillColor=default;strokeColor=default;fontColor=default;" vertex="1" parent="1">
          <mxGeometry x="131" y="440" width="120" height="60" as="geometry" />
        </mxCell>
        <mxCell id="BkB0qi5VnKzyijiQJOGX-2" value="&lt;font style=&quot;font-size: 15px&quot; face=&quot;Times New Roman&quot;&gt;CEEMDAN&lt;/font&gt;" style="rounded=0;whiteSpace=wrap;html=1;fillColor=default;strokeColor=default;fontColor=default;" vertex="1" parent="1">
          <mxGeometry x="301" y="320" width="90" height="300" as="geometry" />
        </mxCell>
        <mxCell id="BkB0qi5VnKzyijiQJOGX-9" value="" style="rounded=0;whiteSpace=wrap;html=1;fontColor=default;strokeColor=default;fillColor=default;" vertex="1" parent="1">
          <mxGeometry x="471" y="330" width="70" height="40" as="geometry" />
        </mxCell>
        <mxCell id="BkB0qi5VnKzyijiQJOGX-10" value="" style="endArrow=classic;html=1;rounded=0;labelBackgroundColor=default;fontColor=default;strokeColor=default;entryX=-0.051;entryY=0.133;entryDx=0;entryDy=0;entryPerimeter=0;fillColor=default;" edge="1" parent="1">
          <mxGeometry width="50" height="50" relative="1" as="geometry">
            <mxPoint x="391" y="349" as="sourcePoint" />
            <mxPoint x="467.43000000000006" y="348.9" as="targetPoint" />
          </mxGeometry>
        </mxCell>
        <mxCell id="BkB0qi5VnKzyijiQJOGX-11" value="" style="endArrow=classic;html=1;rounded=0;labelBackgroundColor=default;fontColor=default;strokeColor=default;entryX=-0.051;entryY=0.133;entryDx=0;entryDy=0;entryPerimeter=0;fillColor=default;" edge="1" parent="1">
          <mxGeometry width="50" height="50" relative="1" as="geometry">
            <mxPoint x="391" y="410.1" as="sourcePoint" />
            <mxPoint x="467.43000000000006" y="410" as="targetPoint" />
          </mxGeometry>
        </mxCell>
        <mxCell id="BkB0qi5VnKzyijiQJOGX-12" value="" style="endArrow=classic;html=1;rounded=0;labelBackgroundColor=default;fontColor=default;strokeColor=default;entryX=-0.051;entryY=0.133;entryDx=0;entryDy=0;entryPerimeter=0;fillColor=default;" edge="1" parent="1">
          <mxGeometry width="50" height="50" relative="1" as="geometry">
            <mxPoint x="391" y="530.1" as="sourcePoint" />
            <mxPoint x="467.43000000000006" y="530" as="targetPoint" />
          </mxGeometry>
        </mxCell>
        <mxCell id="BkB0qi5VnKzyijiQJOGX-13" value="" style="endArrow=classic;html=1;rounded=0;labelBackgroundColor=default;fontColor=default;strokeColor=default;entryX=-0.051;entryY=0.133;entryDx=0;entryDy=0;entryPerimeter=0;fillColor=default;" edge="1" parent="1">
          <mxGeometry width="50" height="50" relative="1" as="geometry">
            <mxPoint x="391" y="590.1" as="sourcePoint" />
            <mxPoint x="467.43000000000006" y="590" as="targetPoint" />
          </mxGeometry>
        </mxCell>
        <mxCell id="BkB0qi5VnKzyijiQJOGX-14" value="" style="rounded=0;whiteSpace=wrap;html=1;fontColor=default;strokeColor=default;fillColor=default;" vertex="1" parent="1">
          <mxGeometry x="471" y="390" width="70" height="40" as="geometry" />
        </mxCell>
        <mxCell id="BkB0qi5VnKzyijiQJOGX-15" value="" style="rounded=0;whiteSpace=wrap;html=1;fontColor=default;strokeColor=default;fillColor=default;" vertex="1" parent="1">
          <mxGeometry x="471" y="510" width="70" height="40" as="geometry" />
        </mxCell>
        <mxCell id="BkB0qi5VnKzyijiQJOGX-16" value="" style="rounded=0;whiteSpace=wrap;html=1;fontColor=default;strokeColor=default;fillColor=default;" vertex="1" parent="1">
          <mxGeometry x="471" y="570" width="70" height="40" as="geometry" />
        </mxCell>
        <mxCell id="BkB0qi5VnKzyijiQJOGX-17" value="" style="endArrow=classic;html=1;rounded=0;labelBackgroundColor=default;fontColor=default;strokeColor=default;entryX=0;entryY=0.5;entryDx=0;entryDy=0;fillColor=default;" edge="1" parent="1" target="BkB0qi5VnKzyijiQJOGX-19">
          <mxGeometry width="50" height="50" relative="1" as="geometry">
            <mxPoint x="541" y="350" as="sourcePoint" />
            <mxPoint x="591" y="350" as="targetPoint" />
          </mxGeometry>
        </mxCell>
        <mxCell id="BkB0qi5VnKzyijiQJOGX-19" value="&lt;font style=&quot;font-size: 15px&quot; face=&quot;Times New Roman&quot;&gt;SUM&lt;/font&gt;" style="rounded=0;whiteSpace=wrap;html=1;fillColor=default;strokeColor=default;fontColor=default;" vertex="1" parent="1">
          <mxGeometry x="671" y="320" width="80" height="300" as="geometry" />
        </mxCell>
        <mxCell id="BkB0qi5VnKzyijiQJOGX-20" value="" style="endArrow=classic;html=1;rounded=0;labelBackgroundColor=default;fontColor=default;strokeColor=default;entryX=0;entryY=0.5;entryDx=0;entryDy=0;fillColor=default;" edge="1" parent="1" target="BkB0qi5VnKzyijiQJOGX-19">
          <mxGeometry width="50" height="50" relative="1" as="geometry">
            <mxPoint x="541" y="410" as="sourcePoint" />
            <mxPoint x="591" y="360" as="targetPoint" />
          </mxGeometry>
        </mxCell>
        <mxCell id="BkB0qi5VnKzyijiQJOGX-21" value="" style="endArrow=classic;html=1;rounded=0;labelBackgroundColor=default;fontColor=default;strokeColor=default;entryX=0;entryY=0.5;entryDx=0;entryDy=0;fillColor=default;" edge="1" parent="1" target="BkB0qi5VnKzyijiQJOGX-19">
          <mxGeometry width="50" height="50" relative="1" as="geometry">
            <mxPoint x="541" y="530" as="sourcePoint" />
            <mxPoint x="591" y="480" as="targetPoint" />
          </mxGeometry>
        </mxCell>
        <mxCell id="BkB0qi5VnKzyijiQJOGX-22" value="" style="endArrow=classic;html=1;rounded=0;labelBackgroundColor=default;fontColor=default;strokeColor=default;fillColor=default;" edge="1" parent="1">
          <mxGeometry width="50" height="50" relative="1" as="geometry">
            <mxPoint x="541" y="590" as="sourcePoint" />
            <mxPoint x="671" y="470" as="targetPoint" />
          </mxGeometry>
        </mxCell>
        <mxCell id="BkB0qi5VnKzyijiQJOGX-23" value="&lt;font face=&quot;Times New Roman&quot; style=&quot;font-size: 15px&quot;&gt;Forecast&lt;/font&gt;" style="rounded=0;whiteSpace=wrap;html=1;fontColor=default;strokeColor=default;fillColor=default;" vertex="1" parent="1">
          <mxGeometry x="811" y="440" width="120" height="60" as="geometry" />
        </mxCell>
        <mxCell id="BkB0qi5VnKzyijiQJOGX-24" value="" style="endArrow=classic;html=1;rounded=0;labelBackgroundColor=default;fontColor=default;strokeColor=default;entryX=0;entryY=0.5;entryDx=0;entryDy=0;fillColor=default;" edge="1" parent="1" target="BkB0qi5VnKzyijiQJOGX-23">
          <mxGeometry width="50" height="50" relative="1" as="geometry">
            <mxPoint x="751" y="470" as="sourcePoint" />
            <mxPoint x="801" y="420" as="targetPoint" />
          </mxGeometry>
        </mxCell>
        <mxCell id="BkB0qi5VnKzyijiQJOGX-25" value="" style="endArrow=classic;html=1;rounded=0;labelBackgroundColor=default;fontColor=default;strokeColor=default;entryX=0;entryY=0.5;entryDx=0;entryDy=0;fillColor=default;" edge="1" parent="1" target="BkB0qi5VnKzyijiQJOGX-2">
          <mxGeometry width="50" height="50" relative="1" as="geometry">
            <mxPoint x="251" y="470" as="sourcePoint" />
            <mxPoint x="301" y="420" as="targetPoint" />
          </mxGeometry>
        </mxCell>
        <mxCell id="BkB0qi5VnKzyijiQJOGX-26" value="&lt;font face=&quot;Times New Roman&quot; style=&quot;font-size: 15px&quot;&gt;$$IMF_1$$&lt;/font&gt;" style="text;html=1;strokeColor=none;fillColor=none;align=center;verticalAlign=middle;whiteSpace=wrap;rounded=0;fontColor=default;labelBackgroundColor=none;" vertex="1" parent="1">
          <mxGeometry x="401" y="320" width="60" height="30" as="geometry" />
        </mxCell>
        <mxCell id="BkB0qi5VnKzyijiQJOGX-27" value="&lt;span style=&quot;font-family: &amp;quot;times new roman&amp;quot; ; font-size: 15px&quot;&gt;$$IMF_2$$&lt;/span&gt;" style="text;html=1;strokeColor=none;fillColor=none;align=center;verticalAlign=middle;whiteSpace=wrap;rounded=0;fontColor=default;" vertex="1" parent="1">
          <mxGeometry x="401" y="380" width="60" height="30" as="geometry" />
        </mxCell>
        <mxCell id="BkB0qi5VnKzyijiQJOGX-28" value="&lt;span style=&quot;font-family: &amp;quot;times new roman&amp;quot; ; font-size: 15px&quot;&gt;$$IMF_{k-1}$$&lt;/span&gt;" style="text;html=1;strokeColor=none;fillColor=none;align=center;verticalAlign=middle;whiteSpace=wrap;rounded=0;fontColor=default;" vertex="1" parent="1">
          <mxGeometry x="401" y="500" width="60" height="30" as="geometry" />
        </mxCell>
        <mxCell id="BkB0qi5VnKzyijiQJOGX-29" value="&lt;span style=&quot;font-family: &amp;quot;times new roman&amp;quot; ; font-size: 15px&quot;&gt;$$IMF_{k}$$&lt;/span&gt;" style="text;html=1;strokeColor=none;fillColor=none;align=center;verticalAlign=middle;whiteSpace=wrap;rounded=0;fontColor=default;" vertex="1" parent="1">
          <mxGeometry x="401" y="560" width="60" height="30" as="geometry" />
        </mxCell>
        <mxCell id="BkB0qi5VnKzyijiQJOGX-30" value="&lt;font face=&quot;Times New Roman&quot; size=&quot;1&quot;&gt;&lt;b style=&quot;font-size: 24px ; line-height: 1.2&quot;&gt;. . .&lt;/b&gt;&lt;/font&gt;" style="text;html=1;strokeColor=none;fillColor=none;align=center;verticalAlign=middle;whiteSpace=wrap;rounded=0;fontColor=default;rotation=90;" vertex="1" parent="1">
          <mxGeometry x="401" y="445" width="60" height="30" as="geometry" />
        </mxCell>
      </root>
    </mxGraphModel>
  </diagram>
  <diagram id="t8-pi6ukFXL28JB9tU3I" name="Page-2">
    <mxGraphModel dx="1730" dy="912" grid="1" gridSize="10" guides="1" tooltips="1" connect="1" arrows="1" fold="1" page="1" pageScale="1" pageWidth="1300" pageHeight="800" math="1" shadow="0">
      <root>
        <mxCell id="WlaN15AEs9KgOEi6QGPo-0" />
        <mxCell id="WlaN15AEs9KgOEi6QGPo-1" parent="WlaN15AEs9KgOEi6QGPo-0" />
        <mxCell id="WlaN15AEs9KgOEi6QGPo-2" value="" style="points=[[0.25,0,0],[0.5,0,0],[0.75,0,0],[1,0.25,0],[1,0.5,0],[1,0.75,0],[0.75,1,0],[0.5,1,0],[0.25,1,0],[0,0.75,0],[0,0.5,0],[0,0.25,0]];shape=mxgraph.bpmn.task;arcSize=10;taskMarker=abstract;outline=none;symbol=general;bpmnShapeType=subprocess;isLoopSub=0;verticalAlign=top;align=left;spacingLeft=5;fillColor=#FFFFFF;strokeColor=#1930FF;strokeWidth=2;fontColor=default;" vertex="1" parent="WlaN15AEs9KgOEi6QGPo-1">
          <mxGeometry x="142.9000000000001" y="90" width="1030" height="160" as="geometry" />
        </mxCell>
        <mxCell id="WlaN15AEs9KgOEi6QGPo-3" value="" style="endArrow=classic;html=1;fontColor=default;" edge="1" parent="WlaN15AEs9KgOEi6QGPo-1">
          <mxGeometry x="951.7700000000004" y="10.799999999999955" width="50" height="50" as="geometry">
            <mxPoint x="826.77" y="190.80000000000018" as="sourcePoint" />
            <mxPoint x="856.77" y="190.80000000000018" as="targetPoint" />
          </mxGeometry>
        </mxCell>
        <mxCell id="WlaN15AEs9KgOEi6QGPo-4" value="" style="points=[[0.25,0,0],[0.5,0,0],[0.75,0,0],[1,0.25,0],[1,0.5,0],[1,0.75,0],[0.75,1,0],[0.5,1,0],[0.25,1,0],[0,0.75,0],[0,0.5,0],[0,0.25,0]];shape=mxgraph.bpmn.task;arcSize=10;taskMarker=abstract;outline=none;symbol=general;bpmnShapeType=subprocess;isLoopSub=0;verticalAlign=top;align=left;spacingLeft=5;strokeColor=#FF6038;strokeWidth=2;fillColor=#FFFFFF;fontColor=default;" vertex="1" parent="WlaN15AEs9KgOEi6QGPo-1">
          <mxGeometry x="414.7700000000001" y="272" width="708.13" height="340" as="geometry" />
        </mxCell>
        <mxCell id="WlaN15AEs9KgOEi6QGPo-5" value="&lt;b&gt;&lt;font style=&quot;font-size: 18px&quot; face=&quot;Times New Roman&quot;&gt;...&lt;/font&gt;&lt;/b&gt;" style="text;html=1;strokeColor=none;fillColor=none;align=center;verticalAlign=middle;whiteSpace=wrap;rounded=0;rotation=-45;fontColor=default;labelBackgroundColor=default;" vertex="1" parent="WlaN15AEs9KgOEi6QGPo-1">
          <mxGeometry x="225.16000000000008" y="162.21000000000004" width="40" height="20" as="geometry" />
        </mxCell>
        <mxCell id="WlaN15AEs9KgOEi6QGPo-6" value="&lt;b&gt;&lt;font style=&quot;font-size: 18px&quot; face=&quot;Times New Roman&quot;&gt;...&lt;/font&gt;&lt;/b&gt;" style="text;html=1;strokeColor=none;fillColor=none;align=center;verticalAlign=middle;whiteSpace=wrap;rounded=0;rotation=-45;labelBackgroundColor=default;fontColor=default;" vertex="1" parent="WlaN15AEs9KgOEi6QGPo-1">
          <mxGeometry x="397.5000000000001" y="162.21000000000004" width="40" height="20" as="geometry" />
        </mxCell>
        <mxCell id="WlaN15AEs9KgOEi6QGPo-7" value="&lt;b&gt;&lt;font style=&quot;font-size: 18px&quot; face=&quot;Times New Roman&quot;&gt;...&lt;/font&gt;&lt;/b&gt;" style="text;html=1;strokeColor=none;fillColor=none;align=center;verticalAlign=middle;whiteSpace=wrap;rounded=0;rotation=-45;labelBackgroundColor=default;fontColor=default;" vertex="1" parent="WlaN15AEs9KgOEi6QGPo-1">
          <mxGeometry x="540" y="162.21000000000004" width="40" height="20" as="geometry" />
        </mxCell>
        <mxCell id="WlaN15AEs9KgOEi6QGPo-8" value="" style="endArrow=classic;html=1;strokeColor=default;labelBackgroundColor=default;fontColor=default;" edge="1" parent="WlaN15AEs9KgOEi6QGPo-1">
          <mxGeometry width="50" height="50" relative="1" as="geometry">
            <mxPoint x="292.9000000000001" y="190" as="sourcePoint" />
            <mxPoint x="352.9000000000001" y="190.42000000000007" as="targetPoint" />
          </mxGeometry>
        </mxCell>
        <mxCell id="WlaN15AEs9KgOEi6QGPo-9" value="" style="endArrow=classic;html=1;strokeColor=default;labelBackgroundColor=default;fontColor=default;" edge="1" parent="WlaN15AEs9KgOEi6QGPo-1">
          <mxGeometry width="50" height="50" relative="1" as="geometry">
            <mxPoint x="460.00000000000045" y="190.71000000000004" as="sourcePoint" />
            <mxPoint x="499.99999999999955" y="190.71000000000004" as="targetPoint" />
          </mxGeometry>
        </mxCell>
        <mxCell id="WlaN15AEs9KgOEi6QGPo-10" value="&lt;b&gt;&lt;font style=&quot;font-size: 16px&quot; face=&quot;Times New Roman&quot;&gt;Conv&lt;/font&gt;&lt;/b&gt;" style="text;html=1;strokeColor=none;fillColor=none;align=center;verticalAlign=middle;whiteSpace=wrap;rounded=0;fontColor=default;labelBackgroundColor=none;" vertex="1" parent="WlaN15AEs9KgOEi6QGPo-1">
          <mxGeometry x="198.16000000000014" y="217" width="40" height="20" as="geometry" />
        </mxCell>
        <mxCell id="WlaN15AEs9KgOEi6QGPo-11" value="&lt;b&gt;&lt;font face=&quot;Times New Roman&quot; style=&quot;font-size: 16px&quot;&gt;Conv&lt;/font&gt;&lt;/b&gt;" style="text;html=1;strokeColor=none;fillColor=none;align=center;verticalAlign=middle;whiteSpace=wrap;rounded=0;labelBackgroundColor=none;fontColor=default;" vertex="1" parent="WlaN15AEs9KgOEi6QGPo-1">
          <mxGeometry x="374.0000000000001" y="217.46000000000004" width="40" height="20" as="geometry" />
        </mxCell>
        <mxCell id="WlaN15AEs9KgOEi6QGPo-12" value="&lt;b&gt;&lt;font style=&quot;font-size: 16px&quot; face=&quot;Times New Roman&quot;&gt;Conv&lt;/font&gt;&lt;/b&gt;" style="text;html=1;strokeColor=none;fillColor=none;align=center;verticalAlign=middle;whiteSpace=wrap;rounded=0;labelBackgroundColor=none;fontColor=default;" vertex="1" parent="WlaN15AEs9KgOEi6QGPo-1">
          <mxGeometry x="515.0000000000001" y="217.21000000000004" width="40" height="20" as="geometry" />
        </mxCell>
        <mxCell id="WlaN15AEs9KgOEi6QGPo-13" value="&lt;font style=&quot;font-size: 16px&quot;&gt;&lt;b&gt;$$IMF_i$$&lt;/b&gt;&lt;/font&gt;" style="text;html=1;strokeColor=none;fillColor=none;align=center;verticalAlign=middle;whiteSpace=wrap;rounded=0;fontColor=default;labelBackgroundColor=none;" vertex="1" parent="WlaN15AEs9KgOEi6QGPo-1">
          <mxGeometry x="83.00000000000009" y="181.21000000000004" width="40" height="20" as="geometry" />
        </mxCell>
        <mxCell id="WlaN15AEs9KgOEi6QGPo-14" value="" style="shape=sumEllipse;perimeter=ellipsePerimeter;whiteSpace=wrap;html=1;backgroundOutline=1;fontColor=default;rotation=-45;fillColor=default;strokeColor=default;" vertex="1" parent="WlaN15AEs9KgOEi6QGPo-1">
          <mxGeometry x="1122.65" y="179.21000000000004" width="24" height="24" as="geometry" />
        </mxCell>
        <mxCell id="WlaN15AEs9KgOEi6QGPo-15" value="" style="endArrow=classic;html=1;strokeColor=default;labelBackgroundColor=default;fontColor=default;" edge="1" parent="WlaN15AEs9KgOEi6QGPo-1">
          <mxGeometry width="50" height="50" relative="1" as="geometry">
            <mxPoint x="128.9000000000001" y="192.22000000000025" as="sourcePoint" />
            <mxPoint x="168.9000000000001" y="192.22000000000025" as="targetPoint" />
          </mxGeometry>
        </mxCell>
        <mxCell id="WlaN15AEs9KgOEi6QGPo-16" value="" style="endArrow=classic;html=1;fontColor=default;" edge="1" parent="WlaN15AEs9KgOEi6QGPo-1">
          <mxGeometry x="816.9000000000003" y="11" width="50" height="50" as="geometry">
            <mxPoint x="691.9000000000001" y="191" as="sourcePoint" />
            <mxPoint x="721.9000000000001" y="191" as="targetPoint" />
          </mxGeometry>
        </mxCell>
        <mxCell id="WlaN15AEs9KgOEi6QGPo-17" value="" style="endArrow=classic;html=1;strokeColor=default;labelBackgroundColor=default;fontColor=default;" edge="1" parent="WlaN15AEs9KgOEi6QGPo-1">
          <mxGeometry x="905.6500000000003" y="10.799999999999955" width="50" height="50" as="geometry">
            <mxPoint x="889.6500000000001" y="190.80000000000018" as="sourcePoint" />
            <mxPoint x="919.6500000000001" y="190.80000000000018" as="targetPoint" />
          </mxGeometry>
        </mxCell>
        <mxCell id="WlaN15AEs9KgOEi6QGPo-18" value="" style="endArrow=classic;html=1;exitX=0.5;exitY=1;exitDx=0;exitDy=0;fontColor=default;" edge="1" parent="WlaN15AEs9KgOEi6QGPo-1" source="WlaN15AEs9KgOEi6QGPo-19">
          <mxGeometry x="889.9000000000003" y="12" width="50" height="50" as="geometry">
            <mxPoint x="1038.9" y="191" as="sourcePoint" />
            <mxPoint x="1068.9" y="191" as="targetPoint" />
          </mxGeometry>
        </mxCell>
        <mxCell id="WlaN15AEs9KgOEi6QGPo-19" value="" style="shape=sumEllipse;perimeter=ellipsePerimeter;whiteSpace=wrap;html=1;backgroundOutline=1;fontColor=default;rotation=-90;fillColor=default;strokeColor=default;" vertex="1" parent="WlaN15AEs9KgOEi6QGPo-1">
          <mxGeometry x="1009.9000000000003" y="179" width="24" height="24" as="geometry" />
        </mxCell>
        <mxCell id="WlaN15AEs9KgOEi6QGPo-20" value="" style="rounded=0;whiteSpace=wrap;html=1;fillColor=#BDE0FE;rotation=0;strokeColor=default;fontColor=default;" vertex="1" parent="WlaN15AEs9KgOEi6QGPo-1">
          <mxGeometry x="650.82" y="180" width="44" height="23" as="geometry" />
        </mxCell>
        <mxCell id="WlaN15AEs9KgOEi6QGPo-21" value="" style="group;rotation=90;fontColor=default;" vertex="1" connectable="0" parent="WlaN15AEs9KgOEi6QGPo-1">
          <mxGeometry x="728.8200000000003" y="171" width="40.99999999999977" height="40" as="geometry" />
        </mxCell>
        <mxCell id="WlaN15AEs9KgOEi6QGPo-22" value="" style="endArrow=classic;html=1;fontColor=default;" edge="1" parent="WlaN15AEs9KgOEi6QGPo-21">
          <mxGeometry x="150" y="-160.20000000000005" width="50" height="50" as="geometry">
            <mxPoint x="25" y="19.799999999999955" as="sourcePoint" />
            <mxPoint x="55" y="19.799999999999955" as="targetPoint" />
          </mxGeometry>
        </mxCell>
        <mxCell id="WlaN15AEs9KgOEi6QGPo-23" value="" style="rounded=0;whiteSpace=wrap;html=1;fillColor=#BDE0FE;rotation=0;strokeColor=default;fontColor=default;" vertex="1" parent="WlaN15AEs9KgOEi6QGPo-21">
          <mxGeometry x="-7" y="9" width="36" height="23" as="geometry" />
        </mxCell>
        <mxCell id="WlaN15AEs9KgOEi6QGPo-24" value="&lt;span style=&quot;font-size: 16px&quot;&gt;FC&lt;/span&gt;" style="text;html=1;strokeColor=none;fillColor=none;align=center;verticalAlign=middle;whiteSpace=wrap;rounded=0;shadow=0;glass=0;labelBackgroundColor=none;sketch=0;fontFamily=Times New Roman;fontSize=18;fontColor=default;" vertex="1" parent="WlaN15AEs9KgOEi6QGPo-21">
          <mxGeometry x="-19.000000000000227" y="5" width="60" height="30" as="geometry" />
        </mxCell>
        <mxCell id="WlaN15AEs9KgOEi6QGPo-25" value="" style="group;rotation=90;fontColor=default;" vertex="1" connectable="0" parent="WlaN15AEs9KgOEi6QGPo-1">
          <mxGeometry x="795.9000000000003" y="169" width="41.49999999999977" height="45" as="geometry" />
        </mxCell>
        <mxCell id="WlaN15AEs9KgOEi6QGPo-26" value="" style="rounded=0;whiteSpace=wrap;html=1;fillColor=#BDE0FE;rotation=0;strokeColor=default;fontColor=default;" vertex="1" parent="WlaN15AEs9KgOEi6QGPo-25">
          <mxGeometry x="-11" y="11" width="45" height="23" as="geometry" />
        </mxCell>
        <mxCell id="WlaN15AEs9KgOEi6QGPo-27" value="&lt;font style=&quot;font-size: 16px&quot;&gt;ReLU&lt;/font&gt;" style="text;html=1;strokeColor=none;fillColor=none;align=center;verticalAlign=middle;whiteSpace=wrap;rounded=0;shadow=0;glass=0;labelBackgroundColor=none;sketch=0;fontFamily=Times New Roman;fontSize=18;fontColor=default;" vertex="1" parent="WlaN15AEs9KgOEi6QGPo-25">
          <mxGeometry x="-18.500000000000227" y="7" width="60" height="30" as="geometry" />
        </mxCell>
        <mxCell id="WlaN15AEs9KgOEi6QGPo-28" value="" style="group;rotation=90;fontColor=default;" vertex="1" connectable="0" parent="WlaN15AEs9KgOEi6QGPo-1">
          <mxGeometry x="864.9000000000003" y="171" width="40.99999999999977" height="40" as="geometry" />
        </mxCell>
        <mxCell id="WlaN15AEs9KgOEi6QGPo-29" value="" style="rounded=0;whiteSpace=wrap;html=1;fillColor=#BDE0FE;rotation=0;strokeColor=default;fontColor=default;" vertex="1" parent="WlaN15AEs9KgOEi6QGPo-28">
          <mxGeometry x="-7" y="9" width="36" height="23" as="geometry" />
        </mxCell>
        <mxCell id="WlaN15AEs9KgOEi6QGPo-30" value="&lt;font style=&quot;font-size: 16px&quot;&gt;FC&lt;/font&gt;" style="text;html=1;strokeColor=none;fillColor=none;align=center;verticalAlign=middle;whiteSpace=wrap;rounded=0;shadow=0;glass=0;labelBackgroundColor=none;sketch=0;fontFamily=Times New Roman;fontSize=18;fontColor=default;" vertex="1" parent="WlaN15AEs9KgOEi6QGPo-28">
          <mxGeometry x="-19.000000000000227" y="5" width="60" height="30" as="geometry" />
        </mxCell>
        <mxCell id="WlaN15AEs9KgOEi6QGPo-31" value="" style="group;rotation=90;fontColor=default;" vertex="1" connectable="0" parent="WlaN15AEs9KgOEi6QGPo-1">
          <mxGeometry x="936.9000000000003" y="161" width="41.99999999999977" height="60" as="geometry" />
        </mxCell>
        <mxCell id="WlaN15AEs9KgOEi6QGPo-32" value="" style="rounded=0;whiteSpace=wrap;html=1;fillColor=#BDE0FE;rotation=0;strokeColor=default;fontColor=default;" vertex="1" parent="WlaN15AEs9KgOEi6QGPo-31">
          <mxGeometry x="-18" y="19" width="60" height="23" as="geometry" />
        </mxCell>
        <mxCell id="WlaN15AEs9KgOEi6QGPo-33" value="&lt;span style=&quot;font-size: 16px&quot;&gt;Sigmoid&lt;/span&gt;" style="text;html=1;strokeColor=none;fillColor=none;align=center;verticalAlign=middle;whiteSpace=wrap;rounded=0;shadow=0;glass=0;labelBackgroundColor=none;sketch=0;fontFamily=Times New Roman;fontSize=18;fontColor=default;" vertex="1" parent="WlaN15AEs9KgOEi6QGPo-31">
          <mxGeometry x="-18.000000000000227" y="15" width="60" height="30" as="geometry" />
        </mxCell>
        <mxCell id="WlaN15AEs9KgOEi6QGPo-34" value="" style="endArrow=classic;html=1;rounded=0;labelBackgroundColor=default;fontFamily=Times New Roman;fontSize=16;fontColor=default;strokeColor=default;fillColor=default;" edge="1" parent="WlaN15AEs9KgOEi6QGPo-1">
          <mxGeometry width="50" height="50" relative="1" as="geometry">
            <mxPoint x="598.9000000000001" y="191" as="sourcePoint" />
            <mxPoint x="648.9000000000001" y="191" as="targetPoint" />
          </mxGeometry>
        </mxCell>
        <mxCell id="WlaN15AEs9KgOEi6QGPo-35" value="" style="endArrow=classic;html=1;fontColor=default;" edge="1" parent="WlaN15AEs9KgOEi6QGPo-1">
          <mxGeometry x="1103.9000000000003" y="10.829999999999927" width="50" height="50" as="geometry">
            <mxPoint x="978.9000000000001" y="190.83000000000004" as="sourcePoint" />
            <mxPoint x="1008.9000000000001" y="190.83000000000004" as="targetPoint" />
          </mxGeometry>
        </mxCell>
        <mxCell id="WlaN15AEs9KgOEi6QGPo-36" value="" style="edgeStyle=elbowEdgeStyle;elbow=vertical;endArrow=classic;html=1;rounded=0;labelBackgroundColor=default;fontFamily=Times New Roman;fontSize=16;fontColor=default;strokeColor=default;fillColor=default;" edge="1" parent="WlaN15AEs9KgOEi6QGPo-1">
          <mxGeometry width="50" height="50" relative="1" as="geometry">
            <mxPoint x="622.9000000000001" y="191" as="sourcePoint" />
            <mxPoint x="1082.9" y="204.0000000000001" as="targetPoint" />
            <Array as="points">
              <mxPoint x="852.9000000000001" y="230" />
              <mxPoint x="812.9000000000001" y="234" />
            </Array>
          </mxGeometry>
        </mxCell>
        <mxCell id="WlaN15AEs9KgOEi6QGPo-37" value="" style="edgeStyle=elbowEdgeStyle;elbow=vertical;endArrow=classic;html=1;rounded=0;labelBackgroundColor=default;fontFamily=Times New Roman;fontSize=16;fontColor=default;strokeColor=default;fillColor=default;entryX=1;entryY=0.5;entryDx=0;entryDy=0;" edge="1" parent="WlaN15AEs9KgOEi6QGPo-1" target="WlaN15AEs9KgOEi6QGPo-19">
          <mxGeometry width="50" height="50" relative="1" as="geometry">
            <mxPoint x="702.9000000000001" y="190.21000000000004" as="sourcePoint" />
            <mxPoint x="953.9000000000001" y="152.42000000000007" as="targetPoint" />
            <Array as="points">
              <mxPoint x="862.9000000000001" y="150" />
            </Array>
          </mxGeometry>
        </mxCell>
        <mxCell id="WlaN15AEs9KgOEi6QGPo-38" value="" style="endArrow=classic;html=1;exitX=0.5;exitY=1;exitDx=0;exitDy=0;fontColor=default;" edge="1" parent="WlaN15AEs9KgOEi6QGPo-1">
          <mxGeometry x="949.9000000000003" y="12.299999999999955" width="50" height="50" as="geometry">
            <mxPoint x="1093.9" y="191.3000000000003" as="sourcePoint" />
            <mxPoint x="1122.9" y="191" as="targetPoint" />
          </mxGeometry>
        </mxCell>
        <mxCell id="WlaN15AEs9KgOEi6QGPo-39" value="&lt;b&gt;Flattern&lt;/b&gt;" style="text;html=1;strokeColor=none;fillColor=none;align=center;verticalAlign=middle;whiteSpace=wrap;rounded=0;labelBackgroundColor=none;fontFamily=Times New Roman;fontSize=16;fontColor=default;" vertex="1" parent="WlaN15AEs9KgOEi6QGPo-1">
          <mxGeometry x="1198.4" y="237" width="60" height="30" as="geometry" />
        </mxCell>
        <mxCell id="WlaN15AEs9KgOEi6QGPo-40" value="&lt;b&gt;Repeat&lt;/b&gt;" style="text;html=1;strokeColor=none;fillColor=none;align=center;verticalAlign=middle;whiteSpace=wrap;rounded=0;labelBackgroundColor=none;fontFamily=Times New Roman;fontSize=16;fontColor=default;" vertex="1" parent="WlaN15AEs9KgOEi6QGPo-1">
          <mxGeometry x="1198.4000000000003" y="365" width="60" height="30" as="geometry" />
        </mxCell>
        <mxCell id="WlaN15AEs9KgOEi6QGPo-41" value="" style="shape=partialRectangle;whiteSpace=wrap;html=1;bottom=0;right=0;fillColor=none;labelBackgroundColor=default;fontFamily=Times New Roman;fontSize=16;fontColor=default;strokeColor=default;rotation=-180;" vertex="1" parent="WlaN15AEs9KgOEi6QGPo-1">
          <mxGeometry x="1102.48" y="341" width="90" height="86" as="geometry" />
        </mxCell>
        <mxCell id="WlaN15AEs9KgOEi6QGPo-42" value="" style="endArrow=none;html=1;rounded=0;labelBackgroundColor=default;fontFamily=Times New Roman;fontSize=16;fontColor=default;strokeColor=default;fillColor=default;" edge="1" parent="WlaN15AEs9KgOEi6QGPo-1">
          <mxGeometry width="50" height="50" relative="1" as="geometry">
            <mxPoint x="1102.9" y="537" as="sourcePoint" />
            <mxPoint x="1102.9" y="317" as="targetPoint" />
          </mxGeometry>
        </mxCell>
        <mxCell id="WlaN15AEs9KgOEi6QGPo-43" value="" style="endArrow=classic;html=1;rounded=0;labelBackgroundColor=default;fontFamily=Times New Roman;fontSize=16;fontColor=default;strokeColor=default;fillColor=default;" edge="1" parent="WlaN15AEs9KgOEi6QGPo-1">
          <mxGeometry width="50" height="50" relative="1" as="geometry">
            <mxPoint x="1103.48" y="316.7600000000002" as="sourcePoint" />
            <mxPoint x="1073.48" y="316.7600000000002" as="targetPoint" />
          </mxGeometry>
        </mxCell>
        <mxCell id="WlaN15AEs9KgOEi6QGPo-44" value="" style="endArrow=classic;html=1;rounded=0;labelBackgroundColor=default;fontFamily=Times New Roman;fontSize=16;fontColor=default;strokeColor=default;fillColor=default;" edge="1" parent="WlaN15AEs9KgOEi6QGPo-1">
          <mxGeometry width="50" height="50" relative="1" as="geometry">
            <mxPoint x="1103.48" y="537" as="sourcePoint" />
            <mxPoint x="1073.48" y="537" as="targetPoint" />
          </mxGeometry>
        </mxCell>
        <mxCell id="WlaN15AEs9KgOEi6QGPo-45" value="" style="endArrow=classic;html=1;rounded=0;labelBackgroundColor=default;fontFamily=Times New Roman;fontSize=16;fontColor=default;strokeColor=default;fillColor=default;" edge="1" parent="WlaN15AEs9KgOEi6QGPo-1">
          <mxGeometry width="50" height="50" relative="1" as="geometry">
            <mxPoint x="1102.48" y="377" as="sourcePoint" />
            <mxPoint x="1072.48" y="377" as="targetPoint" />
          </mxGeometry>
        </mxCell>
        <mxCell id="WlaN15AEs9KgOEi6QGPo-46" value="" style="endArrow=classic;html=1;rounded=0;labelBackgroundColor=default;fontFamily=Times New Roman;fontSize=16;fontColor=default;strokeColor=default;fillColor=default;" edge="1" parent="WlaN15AEs9KgOEi6QGPo-1">
          <mxGeometry width="50" height="50" relative="1" as="geometry">
            <mxPoint x="1102.48" y="476.8599999999997" as="sourcePoint" />
            <mxPoint x="1072.48" y="476.8599999999997" as="targetPoint" />
          </mxGeometry>
        </mxCell>
        <mxCell id="WlaN15AEs9KgOEi6QGPo-47" value="&lt;font style=&quot;font-size: 16px&quot;&gt;&lt;b&gt;...&lt;/b&gt;&lt;/font&gt;" style="text;html=1;strokeColor=none;fillColor=none;align=center;verticalAlign=middle;whiteSpace=wrap;rounded=0;labelBackgroundColor=none;fontFamily=Times New Roman;fontSize=16;fontColor=default;rotation=90;" vertex="1" parent="WlaN15AEs9KgOEi6QGPo-1">
          <mxGeometry x="902.9000000000001" y="422" width="30" height="15" as="geometry" />
        </mxCell>
        <mxCell id="WlaN15AEs9KgOEi6QGPo-48" value="" style="group;rotation=65;fontColor=default;" vertex="1" connectable="0" parent="WlaN15AEs9KgOEi6QGPo-1">
          <mxGeometry x="1069.9771125853285" y="179.4971125853283" width="24" height="24" as="geometry" />
        </mxCell>
        <mxCell id="WlaN15AEs9KgOEi6QGPo-49" value="" style="ellipse;whiteSpace=wrap;html=1;aspect=fixed;fontColor=default;fillColor=default;strokeColor=default;rotation=65;" vertex="1" parent="WlaN15AEs9KgOEi6QGPo-48">
          <mxGeometry width="24" height="24" as="geometry" />
        </mxCell>
        <mxCell id="WlaN15AEs9KgOEi6QGPo-50" value="" style="edgeStyle=isometricEdgeStyle;endArrow=none;html=1;rounded=0;labelBackgroundColor=default;fontColor=default;strokeColor=default;fillColor=default;" edge="1" parent="WlaN15AEs9KgOEi6QGPo-48">
          <mxGeometry width="50" height="100" relative="1" as="geometry">
            <mxPoint x="3" y="11" as="sourcePoint" />
            <mxPoint x="21" y="13" as="targetPoint" />
            <Array as="points" />
          </mxGeometry>
        </mxCell>
        <mxCell id="WlaN15AEs9KgOEi6QGPo-51" value="&lt;font style=&quot;font-size: 16px&quot;&gt;LSTM&lt;/font&gt;" style="text;html=1;strokeColor=default;fillColor=#FFAFCC;align=center;verticalAlign=middle;whiteSpace=wrap;rounded=0;labelBackgroundColor=none;fontFamily=Times New Roman;fontSize=14;fontColor=default;" vertex="1" parent="WlaN15AEs9KgOEi6QGPo-1">
          <mxGeometry x="881.9000000000001" y="302" width="60" height="30" as="geometry" />
        </mxCell>
        <mxCell id="WlaN15AEs9KgOEi6QGPo-52" value="&lt;font style=&quot;font-size: 16px&quot;&gt;LSTM&lt;/font&gt;" style="text;html=1;strokeColor=default;fillColor=#FFAFCC;align=center;verticalAlign=middle;whiteSpace=wrap;rounded=0;labelBackgroundColor=none;fontFamily=Times New Roman;fontSize=14;fontColor=default;" vertex="1" parent="WlaN15AEs9KgOEi6QGPo-1">
          <mxGeometry x="881.9000000000001" y="362" width="60" height="30" as="geometry" />
        </mxCell>
        <mxCell id="WlaN15AEs9KgOEi6QGPo-53" value="&lt;font style=&quot;font-size: 16px&quot;&gt;LSTM&lt;/font&gt;" style="text;html=1;strokeColor=default;fillColor=#FFAFCC;align=center;verticalAlign=middle;whiteSpace=wrap;rounded=0;labelBackgroundColor=none;fontFamily=Times New Roman;fontSize=14;fontColor=default;" vertex="1" parent="WlaN15AEs9KgOEi6QGPo-1">
          <mxGeometry x="881.9000000000001" y="462" width="60" height="30" as="geometry" />
        </mxCell>
        <mxCell id="WlaN15AEs9KgOEi6QGPo-54" value="&lt;font style=&quot;font-size: 16px&quot;&gt;LSTM&lt;/font&gt;" style="text;html=1;strokeColor=default;fillColor=#FFAFCC;align=center;verticalAlign=middle;whiteSpace=wrap;rounded=0;labelBackgroundColor=none;fontFamily=Times New Roman;fontSize=14;fontColor=default;" vertex="1" parent="WlaN15AEs9KgOEi6QGPo-1">
          <mxGeometry x="881.9000000000001" y="522" width="60" height="30" as="geometry" />
        </mxCell>
        <mxCell id="WlaN15AEs9KgOEi6QGPo-55" value="" style="endArrow=classic;html=1;rounded=0;labelBackgroundColor=default;fontFamily=Times New Roman;fontSize=14;fontColor=default;strokeColor=default;fillColor=default;" edge="1" parent="WlaN15AEs9KgOEi6QGPo-1">
          <mxGeometry width="50" height="50" relative="1" as="geometry">
            <mxPoint x="972.6500000000001" y="316.5799999999999" as="sourcePoint" />
            <mxPoint x="942.6500000000001" y="316.5799999999999" as="targetPoint" />
          </mxGeometry>
        </mxCell>
        <mxCell id="WlaN15AEs9KgOEi6QGPo-56" value="" style="endArrow=classic;html=1;rounded=0;labelBackgroundColor=default;fontFamily=Times New Roman;fontSize=14;fontColor=default;strokeColor=default;fillColor=default;" edge="1" parent="WlaN15AEs9KgOEi6QGPo-1">
          <mxGeometry width="50" height="50" relative="1" as="geometry">
            <mxPoint x="972.6500000000001" y="376.8599999999997" as="sourcePoint" />
            <mxPoint x="942.6500000000001" y="376.8599999999997" as="targetPoint" />
          </mxGeometry>
        </mxCell>
        <mxCell id="WlaN15AEs9KgOEi6QGPo-57" value="" style="endArrow=classic;html=1;rounded=0;labelBackgroundColor=default;fontFamily=Times New Roman;fontSize=14;fontColor=default;strokeColor=default;fillColor=default;" edge="1" parent="WlaN15AEs9KgOEi6QGPo-1">
          <mxGeometry width="50" height="50" relative="1" as="geometry">
            <mxPoint x="972.6500000000001" y="476.8599999999997" as="sourcePoint" />
            <mxPoint x="942.6500000000001" y="476.8599999999997" as="targetPoint" />
          </mxGeometry>
        </mxCell>
        <mxCell id="WlaN15AEs9KgOEi6QGPo-58" value="" style="endArrow=classic;html=1;rounded=0;labelBackgroundColor=default;fontFamily=Times New Roman;fontSize=14;fontColor=default;strokeColor=default;fillColor=default;" edge="1" parent="WlaN15AEs9KgOEi6QGPo-1">
          <mxGeometry width="50" height="50" relative="1" as="geometry">
            <mxPoint x="972.6500000000001" y="536.8599999999997" as="sourcePoint" />
            <mxPoint x="942.6500000000001" y="536.8599999999997" as="targetPoint" />
          </mxGeometry>
        </mxCell>
        <mxCell id="WlaN15AEs9KgOEi6QGPo-59" value="" style="rounded=0;whiteSpace=wrap;html=1;labelBackgroundColor=default;fontFamily=Times New Roman;fontSize=14;fontColor=default;strokeColor=default;fillColor=default;" vertex="1" parent="WlaN15AEs9KgOEi6QGPo-1">
          <mxGeometry x="790.9000000000001" y="392" width="60" height="30" as="geometry" />
        </mxCell>
        <mxCell id="WlaN15AEs9KgOEi6QGPo-60" value="&lt;font style=&quot;font-size: 16px&quot;&gt;LSTM&lt;/font&gt;" style="text;html=1;strokeColor=default;fillColor=#FFAFCC;align=center;verticalAlign=middle;whiteSpace=wrap;rounded=0;labelBackgroundColor=none;fontFamily=Times New Roman;fontSize=14;fontColor=default;" vertex="1" parent="WlaN15AEs9KgOEi6QGPo-1">
          <mxGeometry x="790.9000000000001" y="392" width="60" height="30" as="geometry" />
        </mxCell>
        <mxCell id="WlaN15AEs9KgOEi6QGPo-61" value="" style="rounded=0;whiteSpace=wrap;html=1;labelBackgroundColor=default;fontFamily=Times New Roman;fontSize=14;fontColor=default;strokeColor=default;fillColor=default;" vertex="1" parent="WlaN15AEs9KgOEi6QGPo-1">
          <mxGeometry x="790.9000000000001" y="492" width="60" height="30" as="geometry" />
        </mxCell>
        <mxCell id="WlaN15AEs9KgOEi6QGPo-62" value="&lt;font style=&quot;font-size: 16px&quot;&gt;LSTM&lt;/font&gt;" style="text;html=1;strokeColor=default;fillColor=#FFAFCC;align=center;verticalAlign=middle;whiteSpace=wrap;rounded=0;labelBackgroundColor=none;fontFamily=Times New Roman;fontSize=14;fontColor=default;" vertex="1" parent="WlaN15AEs9KgOEi6QGPo-1">
          <mxGeometry x="790.9000000000001" y="492" width="60" height="30" as="geometry" />
        </mxCell>
        <mxCell id="WlaN15AEs9KgOEi6QGPo-63" value="&lt;font style=&quot;font-size: 16px&quot;&gt;LSTM&lt;/font&gt;" style="text;html=1;strokeColor=default;fillColor=#FFAFCC;align=center;verticalAlign=middle;whiteSpace=wrap;rounded=0;labelBackgroundColor=none;fontFamily=Times New Roman;fontSize=14;fontColor=default;" vertex="1" parent="WlaN15AEs9KgOEi6QGPo-1">
          <mxGeometry x="790.9000000000001" y="552" width="60" height="30" as="geometry" />
        </mxCell>
        <mxCell id="WlaN15AEs9KgOEi6QGPo-64" value="" style="edgeStyle=segmentEdgeStyle;endArrow=classic;html=1;rounded=0;labelBackgroundColor=default;fontFamily=Times New Roman;fontSize=14;fontColor=default;strokeColor=default;fillColor=default;" edge="1" parent="WlaN15AEs9KgOEi6QGPo-1">
          <mxGeometry width="50" height="50" relative="1" as="geometry">
            <mxPoint x="1022.9000000000001" y="327" as="sourcePoint" />
            <mxPoint x="852.9000000000001" y="347" as="targetPoint" />
            <Array as="points">
              <mxPoint x="1022.9000000000001" y="347" />
              <mxPoint x="952.9000000000001" y="347" />
            </Array>
          </mxGeometry>
        </mxCell>
        <mxCell id="WlaN15AEs9KgOEi6QGPo-65" value="" style="edgeStyle=segmentEdgeStyle;endArrow=classic;html=1;rounded=0;labelBackgroundColor=default;fontFamily=Times New Roman;fontSize=14;fontColor=default;strokeColor=default;fillColor=default;" edge="1" parent="WlaN15AEs9KgOEi6QGPo-1">
          <mxGeometry width="50" height="50" relative="1" as="geometry">
            <mxPoint x="1022.9000000000001" y="387" as="sourcePoint" />
            <mxPoint x="852.9000000000001" y="407" as="targetPoint" />
            <Array as="points">
              <mxPoint x="1022.9000000000001" y="407" />
              <mxPoint x="952.9000000000001" y="407" />
            </Array>
          </mxGeometry>
        </mxCell>
        <mxCell id="WlaN15AEs9KgOEi6QGPo-66" value="" style="edgeStyle=segmentEdgeStyle;endArrow=classic;html=1;rounded=0;labelBackgroundColor=default;fontFamily=Times New Roman;fontSize=14;fontColor=default;strokeColor=default;fillColor=default;" edge="1" parent="WlaN15AEs9KgOEi6QGPo-1">
          <mxGeometry width="50" height="50" relative="1" as="geometry">
            <mxPoint x="1023.9000000000001" y="487" as="sourcePoint" />
            <mxPoint x="853.9000000000001" y="507" as="targetPoint" />
            <Array as="points">
              <mxPoint x="1023.9000000000001" y="507" />
              <mxPoint x="953.9000000000001" y="507" />
            </Array>
          </mxGeometry>
        </mxCell>
        <mxCell id="WlaN15AEs9KgOEi6QGPo-67" value="" style="edgeStyle=segmentEdgeStyle;endArrow=classic;html=1;rounded=0;labelBackgroundColor=default;fontFamily=Times New Roman;fontSize=14;fontColor=default;strokeColor=default;fillColor=default;" edge="1" parent="WlaN15AEs9KgOEi6QGPo-1">
          <mxGeometry width="50" height="50" relative="1" as="geometry">
            <mxPoint x="1023.9000000000001" y="547.29" as="sourcePoint" />
            <mxPoint x="853.9000000000001" y="567.29" as="targetPoint" />
            <Array as="points">
              <mxPoint x="1023.9000000000001" y="567.29" />
              <mxPoint x="953.9000000000001" y="567.29" />
            </Array>
          </mxGeometry>
        </mxCell>
        <mxCell id="WlaN15AEs9KgOEi6QGPo-68" value="" style="endArrow=none;html=1;rounded=0;labelBackgroundColor=default;fontFamily=Times New Roman;fontSize=14;fontColor=default;strokeColor=default;fillColor=default;" edge="1" parent="WlaN15AEs9KgOEi6QGPo-1">
          <mxGeometry width="50" height="50" relative="1" as="geometry">
            <mxPoint x="760.9000000000001" y="317" as="sourcePoint" />
            <mxPoint x="880.9000000000001" y="316.7600000000002" as="targetPoint" />
          </mxGeometry>
        </mxCell>
        <mxCell id="WlaN15AEs9KgOEi6QGPo-69" value="" style="endArrow=none;html=1;rounded=0;labelBackgroundColor=default;fontFamily=Times New Roman;fontSize=14;fontColor=default;strokeColor=default;fillColor=default;" edge="1" parent="WlaN15AEs9KgOEi6QGPo-1">
          <mxGeometry width="50" height="50" relative="1" as="geometry">
            <mxPoint x="760.9000000000001" y="347" as="sourcePoint" />
            <mxPoint x="760.9000000000001" y="317" as="targetPoint" />
          </mxGeometry>
        </mxCell>
        <mxCell id="WlaN15AEs9KgOEi6QGPo-70" value="" style="endArrow=classic;html=1;rounded=0;labelBackgroundColor=default;fontFamily=Times New Roman;fontSize=14;fontColor=default;strokeColor=default;fillColor=default;" edge="1" parent="WlaN15AEs9KgOEi6QGPo-1">
          <mxGeometry width="50" height="50" relative="1" as="geometry">
            <mxPoint x="790.9000000000001" y="347" as="sourcePoint" />
            <mxPoint x="732.9000000000001" y="347" as="targetPoint" />
          </mxGeometry>
        </mxCell>
        <mxCell id="WlaN15AEs9KgOEi6QGPo-71" value="" style="endArrow=none;html=1;rounded=0;labelBackgroundColor=default;fontFamily=Times New Roman;fontSize=14;fontColor=default;strokeColor=default;fillColor=default;" edge="1" parent="WlaN15AEs9KgOEi6QGPo-1">
          <mxGeometry width="50" height="50" relative="1" as="geometry">
            <mxPoint x="761.4000000000001" y="377.2399999999998" as="sourcePoint" />
            <mxPoint x="881.4000000000001" y="377" as="targetPoint" />
          </mxGeometry>
        </mxCell>
        <mxCell id="WlaN15AEs9KgOEi6QGPo-72" value="" style="endArrow=none;html=1;rounded=0;labelBackgroundColor=default;fontFamily=Times New Roman;fontSize=14;fontColor=default;strokeColor=default;fillColor=default;" edge="1" parent="WlaN15AEs9KgOEi6QGPo-1">
          <mxGeometry width="50" height="50" relative="1" as="geometry">
            <mxPoint x="761.4000000000001" y="407.2399999999998" as="sourcePoint" />
            <mxPoint x="761.4000000000001" y="377.2399999999998" as="targetPoint" />
          </mxGeometry>
        </mxCell>
        <mxCell id="WlaN15AEs9KgOEi6QGPo-73" value="" style="endArrow=classic;html=1;rounded=0;labelBackgroundColor=default;fontFamily=Times New Roman;fontSize=14;fontColor=default;strokeColor=default;fillColor=default;" edge="1" parent="WlaN15AEs9KgOEi6QGPo-1">
          <mxGeometry width="50" height="50" relative="1" as="geometry">
            <mxPoint x="791.4000000000001" y="407.2399999999998" as="sourcePoint" />
            <mxPoint x="733.4000000000001" y="407.2399999999998" as="targetPoint" />
          </mxGeometry>
        </mxCell>
        <mxCell id="WlaN15AEs9KgOEi6QGPo-74" value="" style="endArrow=none;html=1;rounded=0;labelBackgroundColor=default;fontFamily=Times New Roman;fontSize=14;fontColor=default;strokeColor=default;fillColor=default;" edge="1" parent="WlaN15AEs9KgOEi6QGPo-1">
          <mxGeometry width="50" height="50" relative="1" as="geometry">
            <mxPoint x="761.4000000000001" y="477.2399999999998" as="sourcePoint" />
            <mxPoint x="881.4000000000001" y="477" as="targetPoint" />
          </mxGeometry>
        </mxCell>
        <mxCell id="WlaN15AEs9KgOEi6QGPo-75" value="" style="endArrow=none;html=1;rounded=0;labelBackgroundColor=default;fontFamily=Times New Roman;fontSize=14;fontColor=default;strokeColor=default;fillColor=default;" edge="1" parent="WlaN15AEs9KgOEi6QGPo-1">
          <mxGeometry width="50" height="50" relative="1" as="geometry">
            <mxPoint x="761.4000000000001" y="507.2399999999998" as="sourcePoint" />
            <mxPoint x="761.4000000000001" y="477.2399999999998" as="targetPoint" />
          </mxGeometry>
        </mxCell>
        <mxCell id="WlaN15AEs9KgOEi6QGPo-76" value="" style="endArrow=classic;html=1;rounded=0;labelBackgroundColor=default;fontFamily=Times New Roman;fontSize=14;fontColor=default;strokeColor=default;fillColor=default;" edge="1" parent="WlaN15AEs9KgOEi6QGPo-1">
          <mxGeometry width="50" height="50" relative="1" as="geometry">
            <mxPoint x="791.4000000000001" y="507.2399999999998" as="sourcePoint" />
            <mxPoint x="733.4000000000001" y="507.2399999999998" as="targetPoint" />
          </mxGeometry>
        </mxCell>
        <mxCell id="WlaN15AEs9KgOEi6QGPo-77" value="" style="endArrow=none;html=1;rounded=0;labelBackgroundColor=default;fontFamily=Times New Roman;fontSize=14;fontColor=default;strokeColor=default;fillColor=default;" edge="1" parent="WlaN15AEs9KgOEi6QGPo-1">
          <mxGeometry width="50" height="50" relative="1" as="geometry">
            <mxPoint x="761.4000000000001" y="537.8099999999995" as="sourcePoint" />
            <mxPoint x="881.4000000000001" y="537.5699999999997" as="targetPoint" />
          </mxGeometry>
        </mxCell>
        <mxCell id="WlaN15AEs9KgOEi6QGPo-78" value="" style="endArrow=none;html=1;rounded=0;labelBackgroundColor=default;fontFamily=Times New Roman;fontSize=14;fontColor=default;strokeColor=default;fillColor=default;" edge="1" parent="WlaN15AEs9KgOEi6QGPo-1">
          <mxGeometry width="50" height="50" relative="1" as="geometry">
            <mxPoint x="761.4000000000001" y="567.8099999999995" as="sourcePoint" />
            <mxPoint x="761.4000000000001" y="537.8099999999995" as="targetPoint" />
          </mxGeometry>
        </mxCell>
        <mxCell id="WlaN15AEs9KgOEi6QGPo-79" value="" style="endArrow=classic;html=1;rounded=0;labelBackgroundColor=default;fontFamily=Times New Roman;fontSize=14;fontColor=default;strokeColor=default;fillColor=default;" edge="1" parent="WlaN15AEs9KgOEi6QGPo-1">
          <mxGeometry width="50" height="50" relative="1" as="geometry">
            <mxPoint x="791.4000000000001" y="567.8099999999995" as="sourcePoint" />
            <mxPoint x="733.4000000000001" y="567.8099999999995" as="targetPoint" />
          </mxGeometry>
        </mxCell>
        <mxCell id="WlaN15AEs9KgOEi6QGPo-80" value="" style="endArrow=classic;html=1;rounded=0;labelBackgroundColor=default;fontFamily=Times New Roman;fontSize=14;fontColor=default;strokeColor=default;fillColor=default;" edge="1" parent="WlaN15AEs9KgOEi6QGPo-1">
          <mxGeometry width="50" height="50" relative="1" as="geometry">
            <mxPoint x="911.48" y="332" as="sourcePoint" />
            <mxPoint x="911.56" y="362" as="targetPoint" />
          </mxGeometry>
        </mxCell>
        <mxCell id="WlaN15AEs9KgOEi6QGPo-81" value="" style="endArrow=classic;html=1;rounded=0;labelBackgroundColor=default;fontFamily=Times New Roman;fontSize=14;fontColor=default;strokeColor=default;fillColor=default;" edge="1" parent="WlaN15AEs9KgOEi6QGPo-1">
          <mxGeometry width="50" height="50" relative="1" as="geometry">
            <mxPoint x="911.6600000000003" y="392" as="sourcePoint" />
            <mxPoint x="911.7400000000002" y="422" as="targetPoint" />
          </mxGeometry>
        </mxCell>
        <mxCell id="WlaN15AEs9KgOEi6QGPo-82" value="" style="endArrow=classic;html=1;rounded=0;labelBackgroundColor=default;fontFamily=Times New Roman;fontSize=14;fontColor=default;strokeColor=default;fillColor=default;" edge="1" parent="WlaN15AEs9KgOEi6QGPo-1">
          <mxGeometry width="50" height="50" relative="1" as="geometry">
            <mxPoint x="911.9000000000001" y="437" as="sourcePoint" />
            <mxPoint x="911.7400000000002" y="462" as="targetPoint" />
          </mxGeometry>
        </mxCell>
        <mxCell id="WlaN15AEs9KgOEi6QGPo-83" value="" style="endArrow=classic;html=1;rounded=0;labelBackgroundColor=default;fontFamily=Times New Roman;fontSize=14;fontColor=default;strokeColor=default;fillColor=default;" edge="1" parent="WlaN15AEs9KgOEi6QGPo-1">
          <mxGeometry width="50" height="50" relative="1" as="geometry">
            <mxPoint x="911.6100000000001" y="492" as="sourcePoint" />
            <mxPoint x="911.69" y="522" as="targetPoint" />
          </mxGeometry>
        </mxCell>
        <mxCell id="WlaN15AEs9KgOEi6QGPo-84" value="" style="endArrow=classic;html=1;rounded=0;labelBackgroundColor=default;fontFamily=Times New Roman;fontSize=16;fontColor=default;strokeColor=default;fillColor=default;" edge="1" parent="WlaN15AEs9KgOEi6QGPo-1">
          <mxGeometry width="50" height="50" relative="1" as="geometry">
            <mxPoint x="823.3300000000004" y="552" as="sourcePoint" />
            <mxPoint x="823.3300000000004" y="522" as="targetPoint" />
          </mxGeometry>
        </mxCell>
        <mxCell id="WlaN15AEs9KgOEi6QGPo-85" value="" style="endArrow=classic;html=1;rounded=0;labelBackgroundColor=default;fontFamily=Times New Roman;fontSize=16;fontColor=default;strokeColor=default;fillColor=default;" edge="1" parent="WlaN15AEs9KgOEi6QGPo-1">
          <mxGeometry width="50" height="50" relative="1" as="geometry">
            <mxPoint x="823.3300000000004" y="492" as="sourcePoint" />
            <mxPoint x="823.3300000000004" y="462" as="targetPoint" />
          </mxGeometry>
        </mxCell>
        <mxCell id="WlaN15AEs9KgOEi6QGPo-86" value="" style="endArrow=classic;html=1;rounded=0;labelBackgroundColor=default;fontFamily=Times New Roman;fontSize=16;fontColor=default;strokeColor=default;fillColor=default;" edge="1" parent="WlaN15AEs9KgOEi6QGPo-1">
          <mxGeometry width="50" height="50" relative="1" as="geometry">
            <mxPoint x="822.9000000000001" y="447" as="sourcePoint" />
            <mxPoint x="822.9000000000001" y="422" as="targetPoint" />
          </mxGeometry>
        </mxCell>
        <mxCell id="WlaN15AEs9KgOEi6QGPo-87" value="&lt;font style=&quot;font-size: 16px&quot;&gt;&lt;b&gt;...&lt;/b&gt;&lt;/font&gt;" style="text;html=1;strokeColor=none;fillColor=none;align=center;verticalAlign=middle;whiteSpace=wrap;rounded=0;labelBackgroundColor=none;fontFamily=Times New Roman;fontSize=16;fontColor=default;rotation=90;" vertex="1" parent="WlaN15AEs9KgOEi6QGPo-1">
          <mxGeometry x="813.9000000000001" y="447" width="30" height="15" as="geometry" />
        </mxCell>
        <mxCell id="WlaN15AEs9KgOEi6QGPo-88" value="" style="endArrow=classic;html=1;rounded=0;labelBackgroundColor=default;fontFamily=Times New Roman;fontSize=16;fontColor=default;strokeColor=default;fillColor=default;" edge="1" parent="WlaN15AEs9KgOEi6QGPo-1">
          <mxGeometry width="50" height="50" relative="1" as="geometry">
            <mxPoint x="821.9000000000001" y="392" as="sourcePoint" />
            <mxPoint x="821.9000000000001" y="362" as="targetPoint" />
          </mxGeometry>
        </mxCell>
        <mxCell id="WlaN15AEs9KgOEi6QGPo-89" value="" style="endArrow=none;html=1;rounded=0;labelBackgroundColor=default;fontFamily=Times New Roman;fontSize=16;fontColor=default;strokeColor=default;fillColor=default;" edge="1" parent="WlaN15AEs9KgOEi6QGPo-1">
          <mxGeometry width="50" height="50" relative="1" as="geometry">
            <mxPoint x="592.3200000000002" y="347" as="sourcePoint" />
            <mxPoint x="632.3200000000002" y="347" as="targetPoint" />
          </mxGeometry>
        </mxCell>
        <mxCell id="WlaN15AEs9KgOEi6QGPo-90" value="" style="endArrow=none;html=1;rounded=0;labelBackgroundColor=default;fontFamily=Times New Roman;fontSize=16;fontColor=default;strokeColor=default;fillColor=default;" edge="1" parent="WlaN15AEs9KgOEi6QGPo-1">
          <mxGeometry width="50" height="50" relative="1" as="geometry">
            <mxPoint x="592.9000000000001" y="406.8000000000002" as="sourcePoint" />
            <mxPoint x="632.9000000000001" y="406.8000000000002" as="targetPoint" />
          </mxGeometry>
        </mxCell>
        <mxCell id="WlaN15AEs9KgOEi6QGPo-91" value="" style="endArrow=none;html=1;rounded=0;labelBackgroundColor=default;fontFamily=Times New Roman;fontSize=16;fontColor=default;strokeColor=default;fillColor=default;" edge="1" parent="WlaN15AEs9KgOEi6QGPo-1">
          <mxGeometry width="50" height="50" relative="1" as="geometry">
            <mxPoint x="592.8200000000002" y="506.8000000000002" as="sourcePoint" />
            <mxPoint x="632.8200000000002" y="506.8000000000002" as="targetPoint" />
          </mxGeometry>
        </mxCell>
        <mxCell id="WlaN15AEs9KgOEi6QGPo-92" value="" style="endArrow=none;html=1;rounded=0;labelBackgroundColor=default;fontFamily=Times New Roman;fontSize=16;fontColor=default;strokeColor=default;fillColor=default;" edge="1" parent="WlaN15AEs9KgOEi6QGPo-1">
          <mxGeometry width="50" height="50" relative="1" as="geometry">
            <mxPoint x="593.3200000000002" y="566.8000000000002" as="sourcePoint" />
            <mxPoint x="633.3200000000002" y="566.8000000000002" as="targetPoint" />
          </mxGeometry>
        </mxCell>
        <mxCell id="WlaN15AEs9KgOEi6QGPo-93" value="" style="endArrow=none;html=1;rounded=0;labelBackgroundColor=default;fontFamily=Times New Roman;fontSize=16;fontColor=default;strokeColor=default;fillColor=default;" edge="1" parent="WlaN15AEs9KgOEi6QGPo-1">
          <mxGeometry width="50" height="50" relative="1" as="geometry">
            <mxPoint x="593.3200000000002" y="567" as="sourcePoint" />
            <mxPoint x="592.9000000000001" y="347" as="targetPoint" />
          </mxGeometry>
        </mxCell>
        <mxCell id="WlaN15AEs9KgOEi6QGPo-94" value="&lt;font style=&quot;font-size: 16px&quot;&gt;&lt;b&gt;...&lt;/b&gt;&lt;/font&gt;" style="text;html=1;strokeColor=none;fillColor=none;align=center;verticalAlign=middle;whiteSpace=wrap;rounded=0;labelBackgroundColor=none;fontFamily=Times New Roman;fontSize=16;fontColor=default;rotation=90;" vertex="1" parent="WlaN15AEs9KgOEi6QGPo-1">
          <mxGeometry x="1012.4000000000001" y="427" width="30" height="15" as="geometry" />
        </mxCell>
        <mxCell id="WlaN15AEs9KgOEi6QGPo-95" value="&lt;font style=&quot;font-size: 16px&quot;&gt;&lt;b&gt;...&lt;/b&gt;&lt;/font&gt;" style="text;html=1;strokeColor=none;fillColor=none;align=center;verticalAlign=middle;whiteSpace=wrap;rounded=0;labelBackgroundColor=none;fontFamily=Times New Roman;fontSize=16;fontColor=default;rotation=90;" vertex="1" parent="WlaN15AEs9KgOEi6QGPo-1">
          <mxGeometry x="672.9000000000001" y="447" width="30" height="15" as="geometry" />
        </mxCell>
        <mxCell id="WlaN15AEs9KgOEi6QGPo-96" value="" style="endArrow=classic;html=1;rounded=0;labelBackgroundColor=default;fontFamily=Times New Roman;fontSize=16;fontColor=default;strokeColor=default;fillColor=default;" edge="1" parent="WlaN15AEs9KgOEi6QGPo-1">
          <mxGeometry width="50" height="50" relative="1" as="geometry">
            <mxPoint x="592.6399999999999" y="454.3000000000002" as="sourcePoint" />
            <mxPoint x="552.6399999999999" y="454.3000000000002" as="targetPoint" />
          </mxGeometry>
        </mxCell>
        <mxCell id="WlaN15AEs9KgOEi6QGPo-97" value="" style="group;fontColor=default;" vertex="1" connectable="0" parent="WlaN15AEs9KgOEi6QGPo-1">
          <mxGeometry x="432.9000000000001" y="395" width="117.10000000000002" height="120" as="geometry" />
        </mxCell>
        <mxCell id="WlaN15AEs9KgOEi6QGPo-98" value="" style="rounded=1;whiteSpace=wrap;html=1;labelBackgroundColor=default;fontFamily=Times New Roman;fontSize=16;fontColor=default;strokeColor=default;fillColor=default;" vertex="1" parent="WlaN15AEs9KgOEi6QGPo-97">
          <mxGeometry width="117.1" height="120" as="geometry" />
        </mxCell>
        <mxCell id="WlaN15AEs9KgOEi6QGPo-99" value="&lt;font style=&quot;font-size: 16px&quot;&gt;&lt;b&gt;...&lt;/b&gt;&lt;/font&gt;" style="text;html=1;strokeColor=none;fillColor=none;align=center;verticalAlign=middle;whiteSpace=wrap;rounded=0;labelBackgroundColor=none;fontFamily=Times New Roman;fontSize=16;fontColor=default;rotation=90;" vertex="1" parent="WlaN15AEs9KgOEi6QGPo-97">
          <mxGeometry x="55.10000000000002" y="56.25" width="15" height="7.5" as="geometry" />
        </mxCell>
        <mxCell id="WlaN15AEs9KgOEi6QGPo-100" value="" style="group;fontColor=default;" vertex="1" connectable="0" parent="WlaN15AEs9KgOEi6QGPo-97">
          <mxGeometry x="9.429999999999893" y="5" width="99.33000000000004" height="20" as="geometry" />
        </mxCell>
        <mxCell id="WlaN15AEs9KgOEi6QGPo-101" value="&lt;b&gt;&lt;font style=&quot;font-size: 14px&quot;&gt;...&lt;/font&gt;&lt;/b&gt;" style="text;html=1;strokeColor=none;fillColor=none;align=center;verticalAlign=middle;whiteSpace=wrap;rounded=0;labelBackgroundColor=none;fontFamily=Times New Roman;fontSize=16;fontColor=default;" vertex="1" parent="WlaN15AEs9KgOEi6QGPo-100">
          <mxGeometry x="27.998993288590555" width="39.9986577181208" height="10.666666666666666" as="geometry" />
        </mxCell>
        <mxCell id="WlaN15AEs9KgOEi6QGPo-102" value="" style="rounded=1;whiteSpace=wrap;html=1;labelBackgroundColor=default;fontFamily=Times New Roman;fontSize=16;fontColor=default;strokeColor=default;fillColor=none;" vertex="1" parent="WlaN15AEs9KgOEi6QGPo-100">
          <mxGeometry width="99.33" height="20" as="geometry" />
        </mxCell>
        <mxCell id="WlaN15AEs9KgOEi6QGPo-103" value="" style="ellipse;whiteSpace=wrap;html=1;aspect=fixed;labelBackgroundColor=default;fontFamily=Times New Roman;fontSize=16;fontColor=default;strokeColor=default;fillColor=#FFEE32;" vertex="1" parent="WlaN15AEs9KgOEi6QGPo-100">
          <mxGeometry x="4.045612389380494" y="3.3333333333333144" width="13.332885906040268" height="13.332885906040268" as="geometry" />
        </mxCell>
        <mxCell id="WlaN15AEs9KgOEi6QGPo-104" value="" style="ellipse;whiteSpace=wrap;html=1;aspect=fixed;labelBackgroundColor=default;fontFamily=Times New Roman;fontSize=16;fontColor=default;strokeColor=default;fillColor=#FFEE32;" vertex="1" parent="WlaN15AEs9KgOEi6QGPo-100">
          <mxGeometry x="23.333991655283057" y="3.3333333333333144" width="13.332885906040268" height="13.332885906040268" as="geometry" />
        </mxCell>
        <mxCell id="WlaN15AEs9KgOEi6QGPo-105" value="" style="ellipse;whiteSpace=wrap;html=1;aspect=fixed;labelBackgroundColor=default;fontFamily=Times New Roman;fontSize=16;fontColor=default;strokeColor=default;fillColor=#FFEE32;" vertex="1" parent="WlaN15AEs9KgOEi6QGPo-100">
          <mxGeometry x="59.28706242204669" y="3.3333333333333144" width="13.332885906040268" height="13.332885906040268" as="geometry" />
        </mxCell>
        <mxCell id="WlaN15AEs9KgOEi6QGPo-106" value="" style="ellipse;whiteSpace=wrap;html=1;aspect=fixed;labelBackgroundColor=default;fontFamily=Times New Roman;fontSize=16;fontColor=default;strokeColor=default;fillColor=#FFEE32;" vertex="1" parent="WlaN15AEs9KgOEi6QGPo-100">
          <mxGeometry x="78.34689478529424" y="3.3333333333333144" width="13.332885906040268" height="13.332885906040268" as="geometry" />
        </mxCell>
        <mxCell id="WlaN15AEs9KgOEi6QGPo-107" value="" style="group;fontColor=default;" vertex="1" connectable="0" parent="WlaN15AEs9KgOEi6QGPo-97">
          <mxGeometry x="9.429999999999893" y="30" width="99.33000000000004" height="20" as="geometry" />
        </mxCell>
        <mxCell id="WlaN15AEs9KgOEi6QGPo-108" value="&lt;b&gt;&lt;font style=&quot;font-size: 14px&quot;&gt;...&lt;/font&gt;&lt;/b&gt;" style="text;html=1;strokeColor=none;fillColor=none;align=center;verticalAlign=middle;whiteSpace=wrap;rounded=0;labelBackgroundColor=none;fontFamily=Times New Roman;fontSize=16;fontColor=default;" vertex="1" parent="WlaN15AEs9KgOEi6QGPo-107">
          <mxGeometry x="27.998993288590555" width="39.9986577181208" height="10.666666666666666" as="geometry" />
        </mxCell>
        <mxCell id="WlaN15AEs9KgOEi6QGPo-109" value="" style="rounded=1;whiteSpace=wrap;html=1;labelBackgroundColor=default;fontFamily=Times New Roman;fontSize=16;fontColor=default;strokeColor=default;fillColor=none;" vertex="1" parent="WlaN15AEs9KgOEi6QGPo-107">
          <mxGeometry width="99.33" height="20" as="geometry" />
        </mxCell>
        <mxCell id="WlaN15AEs9KgOEi6QGPo-110" value="" style="ellipse;whiteSpace=wrap;html=1;aspect=fixed;labelBackgroundColor=default;fontFamily=Times New Roman;fontSize=16;fontColor=default;strokeColor=default;fillColor=#FFEE32;" vertex="1" parent="WlaN15AEs9KgOEi6QGPo-107">
          <mxGeometry x="4.045612389380494" y="3.3333333333333144" width="13.332885906040268" height="13.332885906040268" as="geometry" />
        </mxCell>
        <mxCell id="WlaN15AEs9KgOEi6QGPo-111" value="" style="ellipse;whiteSpace=wrap;html=1;aspect=fixed;labelBackgroundColor=default;fontFamily=Times New Roman;fontSize=16;fontColor=default;strokeColor=default;fillColor=#FFEE32;" vertex="1" parent="WlaN15AEs9KgOEi6QGPo-107">
          <mxGeometry x="23.333991655283057" y="3.3333333333333144" width="13.332885906040268" height="13.332885906040268" as="geometry" />
        </mxCell>
        <mxCell id="WlaN15AEs9KgOEi6QGPo-112" value="" style="ellipse;whiteSpace=wrap;html=1;aspect=fixed;labelBackgroundColor=default;fontFamily=Times New Roman;fontSize=16;fontColor=default;strokeColor=default;fillColor=#FFEE32;" vertex="1" parent="WlaN15AEs9KgOEi6QGPo-107">
          <mxGeometry x="59.28706242204669" y="3.3333333333333144" width="13.332885906040268" height="13.332885906040268" as="geometry" />
        </mxCell>
        <mxCell id="WlaN15AEs9KgOEi6QGPo-113" value="" style="ellipse;whiteSpace=wrap;html=1;aspect=fixed;labelBackgroundColor=default;fontFamily=Times New Roman;fontSize=16;fontColor=default;strokeColor=default;fillColor=#FFEE32;" vertex="1" parent="WlaN15AEs9KgOEi6QGPo-107">
          <mxGeometry x="78.34689478529424" y="3.3333333333333144" width="13.332885906040268" height="13.332885906040268" as="geometry" />
        </mxCell>
        <mxCell id="WlaN15AEs9KgOEi6QGPo-114" value="" style="group;fontColor=default;" vertex="1" connectable="0" parent="WlaN15AEs9KgOEi6QGPo-97">
          <mxGeometry x="9.429999999999893" y="69.29000000000002" width="99.33000000000004" height="20" as="geometry" />
        </mxCell>
        <mxCell id="WlaN15AEs9KgOEi6QGPo-115" value="&lt;b&gt;&lt;font style=&quot;font-size: 14px&quot;&gt;...&lt;/font&gt;&lt;/b&gt;" style="text;html=1;strokeColor=none;fillColor=none;align=center;verticalAlign=middle;whiteSpace=wrap;rounded=0;labelBackgroundColor=none;fontFamily=Times New Roman;fontSize=16;fontColor=default;" vertex="1" parent="WlaN15AEs9KgOEi6QGPo-114">
          <mxGeometry x="27.998993288590555" width="39.9986577181208" height="10.666666666666666" as="geometry" />
        </mxCell>
        <mxCell id="WlaN15AEs9KgOEi6QGPo-116" value="" style="rounded=1;whiteSpace=wrap;html=1;labelBackgroundColor=default;fontFamily=Times New Roman;fontSize=16;fontColor=default;strokeColor=default;fillColor=none;" vertex="1" parent="WlaN15AEs9KgOEi6QGPo-114">
          <mxGeometry width="99.33" height="20" as="geometry" />
        </mxCell>
        <mxCell id="WlaN15AEs9KgOEi6QGPo-117" value="" style="ellipse;whiteSpace=wrap;html=1;aspect=fixed;labelBackgroundColor=default;fontFamily=Times New Roman;fontSize=16;fontColor=default;strokeColor=default;fillColor=#FFEE32;" vertex="1" parent="WlaN15AEs9KgOEi6QGPo-114">
          <mxGeometry x="4.045612389380494" y="3.3333333333333144" width="13.332885906040268" height="13.332885906040268" as="geometry" />
        </mxCell>
        <mxCell id="WlaN15AEs9KgOEi6QGPo-118" value="" style="ellipse;whiteSpace=wrap;html=1;aspect=fixed;labelBackgroundColor=default;fontFamily=Times New Roman;fontSize=16;fontColor=default;strokeColor=default;fillColor=#FFEE32;" vertex="1" parent="WlaN15AEs9KgOEi6QGPo-114">
          <mxGeometry x="23.333991655283057" y="3.3333333333333144" width="13.332885906040268" height="13.332885906040268" as="geometry" />
        </mxCell>
        <mxCell id="WlaN15AEs9KgOEi6QGPo-119" value="" style="ellipse;whiteSpace=wrap;html=1;aspect=fixed;labelBackgroundColor=default;fontFamily=Times New Roman;fontSize=16;fontColor=default;strokeColor=default;fillColor=#FFEE32;" vertex="1" parent="WlaN15AEs9KgOEi6QGPo-114">
          <mxGeometry x="59.28706242204669" y="3.3333333333333144" width="13.332885906040268" height="13.332885906040268" as="geometry" />
        </mxCell>
        <mxCell id="WlaN15AEs9KgOEi6QGPo-120" value="" style="ellipse;whiteSpace=wrap;html=1;aspect=fixed;labelBackgroundColor=default;fontFamily=Times New Roman;fontSize=16;fontColor=default;strokeColor=default;fillColor=#FFEE32;" vertex="1" parent="WlaN15AEs9KgOEi6QGPo-114">
          <mxGeometry x="78.34689478529424" y="3.3333333333333144" width="13.332885906040268" height="13.332885906040268" as="geometry" />
        </mxCell>
        <mxCell id="WlaN15AEs9KgOEi6QGPo-121" value="" style="group;fontColor=default;" vertex="1" connectable="0" parent="WlaN15AEs9KgOEi6QGPo-97">
          <mxGeometry x="9.429999999999893" y="95" width="99.33000000000004" height="20" as="geometry" />
        </mxCell>
        <mxCell id="WlaN15AEs9KgOEi6QGPo-122" value="&lt;b&gt;&lt;font style=&quot;font-size: 14px&quot;&gt;...&lt;/font&gt;&lt;/b&gt;" style="text;html=1;strokeColor=none;fillColor=none;align=center;verticalAlign=middle;whiteSpace=wrap;rounded=0;labelBackgroundColor=none;fontFamily=Times New Roman;fontSize=16;fontColor=default;" vertex="1" parent="WlaN15AEs9KgOEi6QGPo-121">
          <mxGeometry x="27.998993288590555" width="39.9986577181208" height="10.666666666666666" as="geometry" />
        </mxCell>
        <mxCell id="WlaN15AEs9KgOEi6QGPo-123" value="" style="rounded=1;whiteSpace=wrap;html=1;labelBackgroundColor=default;fontFamily=Times New Roman;fontSize=16;fontColor=default;strokeColor=default;fillColor=none;" vertex="1" parent="WlaN15AEs9KgOEi6QGPo-121">
          <mxGeometry width="99.33" height="20" as="geometry" />
        </mxCell>
        <mxCell id="WlaN15AEs9KgOEi6QGPo-124" value="" style="ellipse;whiteSpace=wrap;html=1;aspect=fixed;labelBackgroundColor=default;fontFamily=Times New Roman;fontSize=16;fontColor=default;strokeColor=default;fillColor=#FFEE32;" vertex="1" parent="WlaN15AEs9KgOEi6QGPo-121">
          <mxGeometry x="4.045612389380494" y="3.3333333333333144" width="13.332885906040268" height="13.332885906040268" as="geometry" />
        </mxCell>
        <mxCell id="WlaN15AEs9KgOEi6QGPo-125" value="" style="ellipse;whiteSpace=wrap;html=1;aspect=fixed;labelBackgroundColor=default;fontFamily=Times New Roman;fontSize=16;fontColor=default;strokeColor=default;fillColor=#FFEE32;" vertex="1" parent="WlaN15AEs9KgOEi6QGPo-121">
          <mxGeometry x="23.333991655283057" y="3.3333333333333144" width="13.332885906040268" height="13.332885906040268" as="geometry" />
        </mxCell>
        <mxCell id="WlaN15AEs9KgOEi6QGPo-126" value="" style="ellipse;whiteSpace=wrap;html=1;aspect=fixed;labelBackgroundColor=default;fontFamily=Times New Roman;fontSize=16;fontColor=default;strokeColor=default;fillColor=#FFEE32;" vertex="1" parent="WlaN15AEs9KgOEi6QGPo-121">
          <mxGeometry x="59.28706242204669" y="3.3333333333333144" width="13.332885906040268" height="13.332885906040268" as="geometry" />
        </mxCell>
        <mxCell id="WlaN15AEs9KgOEi6QGPo-127" value="" style="ellipse;whiteSpace=wrap;html=1;aspect=fixed;labelBackgroundColor=default;fontFamily=Times New Roman;fontSize=16;fontColor=default;strokeColor=default;fillColor=#FFEE32;" vertex="1" parent="WlaN15AEs9KgOEi6QGPo-121">
          <mxGeometry x="78.34689478529424" y="3.3333333333333144" width="13.332885906040268" height="13.332885906040268" as="geometry" />
        </mxCell>
        <mxCell id="WlaN15AEs9KgOEi6QGPo-128" value="" style="endArrow=classic;html=1;rounded=0;labelBackgroundColor=default;fontFamily=Times New Roman;fontSize=16;fontColor=default;strokeColor=default;fillColor=default;" edge="1" parent="WlaN15AEs9KgOEi6QGPo-1">
          <mxGeometry width="50" height="50" relative="1" as="geometry">
            <mxPoint x="432.50000000000045" y="454.21000000000004" as="sourcePoint" />
            <mxPoint x="392.50000000000045" y="454.21000000000004" as="targetPoint" />
          </mxGeometry>
        </mxCell>
        <mxCell id="WlaN15AEs9KgOEi6QGPo-129" value="" style="rounded=0;whiteSpace=wrap;html=1;labelBackgroundColor=default;fontFamily=Times New Roman;fontSize=14;fontColor=default;strokeColor=default;fillColor=#F0F3BD;" vertex="1" parent="WlaN15AEs9KgOEi6QGPo-1">
          <mxGeometry x="288.00000000000006" y="531" width="90" height="50" as="geometry" />
        </mxCell>
        <mxCell id="WlaN15AEs9KgOEi6QGPo-130" value="" style="rounded=0;whiteSpace=wrap;html=1;labelBackgroundColor=default;fontFamily=Times New Roman;fontSize=14;fontColor=default;strokeColor=default;fillColor=#deaaff;" vertex="1" parent="WlaN15AEs9KgOEi6QGPo-1">
          <mxGeometry x="276.98000000000013" y="429.5" width="111.75" height="50" as="geometry" />
        </mxCell>
        <mxCell id="WlaN15AEs9KgOEi6QGPo-131" value="GANG-Dense" style="text;html=1;strokeColor=none;fillColor=none;align=center;verticalAlign=middle;whiteSpace=wrap;rounded=0;labelBackgroundColor=none;fontFamily=Times New Roman;fontSize=16;fontColor=default;" vertex="1" parent="WlaN15AEs9KgOEi6QGPo-1">
          <mxGeometry x="281.9200000000002" y="439.5" width="101.87" height="30" as="geometry" />
        </mxCell>
        <mxCell id="WlaN15AEs9KgOEi6QGPo-132" value="" style="shape=flexArrow;endArrow=classic;html=1;rounded=0;fontColor=default;fillColor=#d5e8d4;strokeColor=#82b366;labelBackgroundColor=default;" edge="1" parent="WlaN15AEs9KgOEi6QGPo-1">
          <mxGeometry width="50" height="50" relative="1" as="geometry">
            <mxPoint x="269.37000000000035" y="454.21000000000004" as="sourcePoint" />
            <mxPoint x="204.95999999999935" y="454.21000000000004" as="targetPoint" />
          </mxGeometry>
        </mxCell>
        <mxCell id="WlaN15AEs9KgOEi6QGPo-133" value="" style="endArrow=classic;html=1;rounded=0;labelBackgroundColor=default;fontSize=18;fontColor=default;strokeColor=default;fillColor=default;" edge="1" parent="WlaN15AEs9KgOEi6QGPo-1">
          <mxGeometry width="50" height="50" relative="1" as="geometry">
            <mxPoint x="332.6200000000001" y="479.5" as="sourcePoint" />
            <mxPoint x="332.6200000000001" y="529.5" as="targetPoint" />
          </mxGeometry>
        </mxCell>
        <mxCell id="WlaN15AEs9KgOEi6QGPo-134" value="" style="group;fontColor=default;strokeColor=none;labelBorderColor=none;" vertex="1" connectable="0" parent="WlaN15AEs9KgOEi6QGPo-1">
          <mxGeometry x="96.90000000000009" y="261" width="99.71" height="393.13" as="geometry" />
        </mxCell>
        <mxCell id="WlaN15AEs9KgOEi6QGPo-135" value="" style="points=[[0.25,0,0],[0.5,0,0],[0.75,0,0],[1,0.25,0],[1,0.5,0],[1,0.75,0],[0.75,1,0],[0.5,1,0],[0.25,1,0],[0,0.75,0],[0,0.5,0],[0,0.25,0]];shape=mxgraph.bpmn.task;arcSize=10;taskMarker=abstract;outline=none;symbol=general;bpmnShapeType=subprocess;isLoopSub=0;verticalAlign=top;align=left;spacingLeft=5;strokeColor=#29CC70;strokeWidth=2;fillColor=#FFFFFF;fontColor=default;rotation=-90;" vertex="1" parent="WlaN15AEs9KgOEi6QGPo-134">
          <mxGeometry x="-146.7271" y="146.7143367147873" width="393.1642" height="99.70132657042527" as="geometry" />
        </mxCell>
        <mxCell id="WlaN15AEs9KgOEi6QGPo-136" value="&lt;font face=&quot;Times New Roman&quot; style=&quot;font-size: 16px&quot;&gt;&lt;b&gt;FC&lt;/b&gt;&lt;/font&gt;" style="rounded=1;whiteSpace=wrap;html=1;flipH=1;fillColor=#fad4c0;strokeColor=default;fontColor=default;" vertex="1" parent="WlaN15AEs9KgOEi6QGPo-134">
          <mxGeometry x="25.717510000000065" y="33.07783242294177" width="45.253" height="23.007998439328908" as="geometry" />
        </mxCell>
        <mxCell id="WlaN15AEs9KgOEi6QGPo-137" value="&lt;font face=&quot;Times New Roman&quot; style=&quot;font-size: 16px&quot;&gt;&lt;b&gt;FC&lt;/b&gt;&lt;/font&gt;" style="rounded=1;whiteSpace=wrap;html=1;flipH=1;fillColor=#fad4c0;strokeColor=default;fontColor=default;" vertex="1" parent="WlaN15AEs9KgOEi6QGPo-134">
          <mxGeometry x="25.717510000000065" y="79.09382930159958" width="45.253" height="23.007998439328908" as="geometry" />
        </mxCell>
        <mxCell id="WlaN15AEs9KgOEi6QGPo-138" value="" style="shape=sumEllipse;perimeter=ellipsePerimeter;whiteSpace=wrap;html=1;backgroundOutline=1;fontColor=default;rotation=-90;fillColor=default;strokeColor=default;" vertex="1" parent="WlaN15AEs9KgOEi6QGPo-134">
          <mxGeometry x="40.10643000000025" y="125.87675946156834" width="18.408" height="18.406398751463126" as="geometry" />
        </mxCell>
        <mxCell id="WlaN15AEs9KgOEi6QGPo-139" value="&lt;font face=&quot;Times New Roman&quot; style=&quot;font-size: 16px&quot;&gt;&lt;b&gt;FC&lt;/b&gt;&lt;/font&gt;" style="rounded=1;whiteSpace=wrap;html=1;flipH=1;fillColor=#FAD4C0;strokeColor=default;fontColor=default;" vertex="1" parent="WlaN15AEs9KgOEi6QGPo-134">
          <mxGeometry x="26.683930000000014" y="201.80315431135375" width="45.253" height="23.007998439328908" as="geometry" />
        </mxCell>
        <mxCell id="WlaN15AEs9KgOEi6QGPo-140" value="" style="shape=orEllipse;perimeter=ellipsePerimeter;whiteSpace=wrap;html=1;backgroundOutline=1;labelBackgroundColor=default;fontFamily=Times New Roman;fontSize=16;fontColor=default;strokeColor=default;fillColor=default;" vertex="1" parent="WlaN15AEs9KgOEi6QGPo-134">
          <mxGeometry x="39.72292999999993" y="159.23835719859528" width="19.175" height="19.173332032774088" as="geometry" />
        </mxCell>
        <mxCell id="WlaN15AEs9KgOEi6QGPo-141" value="&lt;font face=&quot;Times New Roman&quot; style=&quot;font-size: 16px&quot;&gt;&lt;b&gt;ReLU&lt;/b&gt;&lt;/font&gt;" style="rounded=1;whiteSpace=wrap;html=1;flipH=1;fillColor=#FAD4C0;strokeColor=default;fontColor=default;" vertex="1" parent="WlaN15AEs9KgOEi6QGPo-134">
          <mxGeometry x="26.683930000000014" y="247.81915119001152" width="45.253" height="23.007998439328908" as="geometry" />
        </mxCell>
        <mxCell id="WlaN15AEs9KgOEi6QGPo-142" value="" style="shape=orEllipse;perimeter=ellipsePerimeter;whiteSpace=wrap;html=1;backgroundOutline=1;labelBackgroundColor=default;fontFamily=Times New Roman;fontSize=16;fontColor=default;strokeColor=default;fillColor=default;" vertex="1" parent="WlaN15AEs9KgOEi6QGPo-134">
          <mxGeometry x="39.33942999999994" y="293.8351480686694" width="19.175" height="19.173332032774088" as="geometry" />
        </mxCell>
        <mxCell id="WlaN15AEs9KgOEi6QGPo-143" value="&lt;font face=&quot;Times New Roman&quot; style=&quot;font-size: 16px&quot;&gt;&lt;b&gt;FC&lt;/b&gt;&lt;/font&gt;" style="rounded=1;whiteSpace=wrap;html=1;flipH=1;fillColor=#FAD4C0;strokeColor=default;fontColor=default;" vertex="1" parent="WlaN15AEs9KgOEi6QGPo-134">
          <mxGeometry x="26.683930000000014" y="336.01647854077237" width="45.253" height="23.007998439328908" as="geometry" />
        </mxCell>
        <mxCell id="WlaN15AEs9KgOEi6QGPo-144" value="" style="endArrow=classic;html=1;rounded=0;labelBackgroundColor=default;fontSize=18;fontColor=default;strokeColor=default;fillColor=default;" edge="1" parent="WlaN15AEs9KgOEi6QGPo-134">
          <mxGeometry width="50" height="50" relative="1" as="geometry">
            <mxPoint x="48.159929999999974" y="56.08583086227067" as="sourcePoint" />
            <mxPoint x="48.159929999999974" y="79.09382930159958" as="targetPoint" />
          </mxGeometry>
        </mxCell>
        <mxCell id="WlaN15AEs9KgOEi6QGPo-145" value="" style="endArrow=classic;html=1;rounded=0;labelBackgroundColor=default;fontSize=18;fontColor=default;strokeColor=default;fillColor=default;" edge="1" parent="WlaN15AEs9KgOEi6QGPo-134">
          <mxGeometry width="50" height="50" relative="1" as="geometry">
            <mxPoint x="48.54343000000015" y="102.10182774092848" as="sourcePoint" />
            <mxPoint x="48.727509999999974" y="125.1098261802574" as="targetPoint" />
          </mxGeometry>
        </mxCell>
        <mxCell id="WlaN15AEs9KgOEi6QGPo-146" value="" style="endArrow=classic;html=1;rounded=0;labelBackgroundColor=default;fontSize=18;fontColor=default;strokeColor=default;fillColor=default;" edge="1" parent="WlaN15AEs9KgOEi6QGPo-134">
          <mxGeometry width="50" height="50" relative="1" as="geometry">
            <mxPoint x="49.12634999999999" y="144.28315821303147" as="sourcePoint" />
            <mxPoint x="49.12634999999999" y="159.62182383925074" as="targetPoint" />
          </mxGeometry>
        </mxCell>
        <mxCell id="WlaN15AEs9KgOEi6QGPo-147" value="" style="endArrow=classic;html=1;rounded=0;labelBackgroundColor=default;fontSize=18;fontColor=default;strokeColor=default;fillColor=default;" edge="1" parent="WlaN15AEs9KgOEi6QGPo-134">
          <mxGeometry width="50" height="50" relative="1" as="geometry">
            <mxPoint x="49.12634999999999" y="178.41168923136934" as="sourcePoint" />
            <mxPoint x="49.12634999999999" y="201.41968767069827" as="targetPoint" />
          </mxGeometry>
        </mxCell>
        <mxCell id="WlaN15AEs9KgOEi6QGPo-148" value="" style="endArrow=classic;html=1;rounded=0;labelBackgroundColor=default;fontSize=18;fontColor=default;strokeColor=default;fillColor=default;" edge="1" parent="WlaN15AEs9KgOEi6QGPo-134">
          <mxGeometry width="50" height="50" relative="1" as="geometry">
            <mxPoint x="48.159929999999974" y="224.81115275068265" as="sourcePoint" />
            <mxPoint x="48.159929999999974" y="247.81915119001152" as="targetPoint" />
          </mxGeometry>
        </mxCell>
        <mxCell id="WlaN15AEs9KgOEi6QGPo-149" value="" style="endArrow=classic;html=1;rounded=0;labelBackgroundColor=default;fontSize=18;fontColor=default;strokeColor=default;fillColor=default;" edge="1" parent="WlaN15AEs9KgOEi6QGPo-134">
          <mxGeometry width="50" height="50" relative="1" as="geometry">
            <mxPoint x="49.12634999999999" y="270.82714962934045" as="sourcePoint" />
            <mxPoint x="49.12634999999999" y="293.8351480686694" as="targetPoint" />
          </mxGeometry>
        </mxCell>
        <mxCell id="WlaN15AEs9KgOEi6QGPo-150" value="" style="endArrow=classic;html=1;rounded=0;labelBackgroundColor=default;fontSize=18;fontColor=default;strokeColor=default;fillColor=default;" edge="1" parent="WlaN15AEs9KgOEi6QGPo-134">
          <mxGeometry width="50" height="50" relative="1" as="geometry">
            <mxPoint x="49.12634999999999" y="313.00848010144347" as="sourcePoint" />
            <mxPoint x="49.12634999999999" y="336.01647854077237" as="targetPoint" />
          </mxGeometry>
        </mxCell>
        <mxCell id="WlaN15AEs9KgOEi6QGPo-151" value="" style="endArrow=classic;html=1;rounded=0;labelBackgroundColor=default;fontSize=18;fontColor=default;strokeColor=default;fillColor=default;" edge="1" parent="WlaN15AEs9KgOEi6QGPo-134">
          <mxGeometry width="50" height="50" relative="1" as="geometry">
            <mxPoint x="48.02187000000048" y="10.06983398361286" as="sourcePoint" />
            <mxPoint x="48.02187000000048" y="33.07783242294177" as="targetPoint" />
          </mxGeometry>
        </mxCell>
        <mxCell id="WlaN15AEs9KgOEi6QGPo-152" value="" style="edgeStyle=elbowEdgeStyle;elbow=horizontal;endArrow=classic;html=1;rounded=0;labelBackgroundColor=default;fontSize=18;fontColor=default;strokeColor=default;fillColor=default;" edge="1" parent="WlaN15AEs9KgOEi6QGPo-134">
          <mxGeometry width="50" height="50" relative="1" as="geometry">
            <mxPoint x="47.77642999999997" y="67.58983008193513" as="sourcePoint" />
            <mxPoint x="41.05750999999998" y="136.61382539992184" as="targetPoint" />
            <Array as="points">
              <mxPoint x="11.727429999999972" y="105.9364941474833" />
            </Array>
          </mxGeometry>
        </mxCell>
        <mxCell id="WlaN15AEs9KgOEi6QGPo-153" value="" style="edgeStyle=elbowEdgeStyle;elbow=horizontal;endArrow=classic;html=1;rounded=0;labelBackgroundColor=default;fontSize=18;fontColor=default;strokeColor=default;fillColor=default;" edge="1" parent="WlaN15AEs9KgOEi6QGPo-134">
          <mxGeometry width="50" height="50" relative="1" as="geometry">
            <mxPoint x="48.727509999999974" y="66.82289680062416" as="sourcePoint" />
            <mxPoint x="59.02064999999996" y="168.44155657432685" as="targetPoint" />
            <Array as="points">
              <mxPoint x="87.07750999999998" y="117.44049336714777" />
            </Array>
          </mxGeometry>
        </mxCell>
        <mxCell id="WlaN15AEs9KgOEi6QGPo-154" value="" style="edgeStyle=elbowEdgeStyle;elbow=horizontal;endArrow=classic;html=1;rounded=0;labelBackgroundColor=default;fontSize=18;fontColor=default;strokeColor=default;fillColor=default;entryX=1;entryY=0.5;entryDx=0;entryDy=0;" edge="1" parent="WlaN15AEs9KgOEi6QGPo-134" target="WlaN15AEs9KgOEi6QGPo-142">
          <mxGeometry width="50" height="50" relative="1" as="geometry">
            <mxPoint x="87.07750999999998" y="168.05808993367134" as="sourcePoint" />
            <mxPoint x="56.397509999999976" y="298.4367477565351" as="targetPoint" />
            <Array as="points">
              <mxPoint x="86.75536999999996" y="263.9247500975418" />
            </Array>
          </mxGeometry>
        </mxCell>
        <mxCell id="WlaN15AEs9KgOEi6QGPo-155" value="" style="endArrow=classic;html=1;rounded=0;labelBackgroundColor=default;fontSize=18;fontColor=default;strokeColor=default;fillColor=default;" edge="1" parent="WlaN15AEs9KgOEi6QGPo-134">
          <mxGeometry width="50" height="50" relative="1" as="geometry">
            <mxPoint x="48.083230000000626" y="359.02447698010127" as="sourcePoint" />
            <mxPoint x="48.083230000000626" y="382.03247541943017" as="targetPoint" />
          </mxGeometry>
        </mxCell>
        <mxCell id="WlaN15AEs9KgOEi6QGPo-156" value="&lt;font style=&quot;font-size: 18px&quot;&gt;Output&lt;/font&gt;" style="text;html=1;strokeColor=none;fillColor=none;align=center;verticalAlign=middle;whiteSpace=wrap;rounded=0;labelBackgroundColor=none;fontFamily=Times New Roman;fontSize=16;fontColor=default;" vertex="1" parent="WlaN15AEs9KgOEi6QGPo-1">
          <mxGeometry x="282.0600000000002" y="541" width="101.87" height="30" as="geometry" />
        </mxCell>
        <mxCell id="WlaN15AEs9KgOEi6QGPo-157" value="" style="edgeStyle=segmentEdgeStyle;endArrow=classic;html=1;rounded=0;labelBackgroundColor=default;fontFamily=Times New Roman;fontSize=16;fontColor=default;strokeColor=default;fillColor=default;" edge="1" parent="WlaN15AEs9KgOEi6QGPo-1">
          <mxGeometry width="50" height="50" relative="1" as="geometry">
            <mxPoint x="1146.65" y="191.21000000000015" as="sourcePoint" />
            <mxPoint x="1192.9" y="320" as="targetPoint" />
          </mxGeometry>
        </mxCell>
        <mxCell id="WlaN15AEs9KgOEi6QGPo-158" value="&lt;font face=&quot;Times New Roman&quot; style=&quot;font-size: 20px&quot;&gt;&lt;b&gt;CNN&lt;/b&gt;&lt;/font&gt;" style="text;html=1;strokeColor=none;fillColor=none;align=center;verticalAlign=middle;whiteSpace=wrap;rounded=0;fontSize=16;labelBackgroundColor=none;fontColor=default;" vertex="1" parent="WlaN15AEs9KgOEi6QGPo-1">
          <mxGeometry x="564.15" y="60" width="247.5" height="20" as="geometry" />
        </mxCell>
        <mxCell id="WlaN15AEs9KgOEi6QGPo-159" value="&lt;h2 id=&quot;2-bi-directional-recurrent-neural-network-brnn&quot; style=&quot;box-sizing: border-box ; outline: 0px ; margin: 8px 0px 16px ; padding: 0px ; line-height: 30px ; overflow-wrap: break-word&quot;&gt;&lt;font face=&quot;Times New Roman&quot; style=&quot;font-size: 20px&quot;&gt;Bi-directional&amp;nbsp;LSTM&lt;/font&gt;&lt;/h2&gt;" style="text;html=1;strokeColor=none;fillColor=none;align=center;verticalAlign=middle;whiteSpace=wrap;rounded=0;fontSize=16;labelBackgroundColor=none;fontColor=default;" vertex="1" parent="WlaN15AEs9KgOEi6QGPo-1">
          <mxGeometry x="670" y="626" width="220" height="20" as="geometry" />
        </mxCell>
        <mxCell id="WlaN15AEs9KgOEi6QGPo-160" value="&lt;font face=&quot;Times New Roman&quot; style=&quot;font-size: 20px&quot;&gt;&lt;b&gt;GANG-Dense&lt;/b&gt;&lt;/font&gt;" style="text;html=1;strokeColor=none;fillColor=none;align=center;verticalAlign=middle;whiteSpace=wrap;rounded=0;fontSize=16;labelBackgroundColor=none;fontColor=default;" vertex="1" parent="WlaN15AEs9KgOEi6QGPo-1">
          <mxGeometry x="23" y="660" width="247.5" height="20" as="geometry" />
        </mxCell>
        <mxCell id="WlaN15AEs9KgOEi6QGPo-161" value="" style="rounded=0;whiteSpace=wrap;html=1;fillColor=#2EC4B6;strokeColor=default;fontColor=default;" vertex="1" parent="WlaN15AEs9KgOEi6QGPo-1">
          <mxGeometry x="225.16000000000008" y="158.21000000000004" width="60" height="10" as="geometry" />
        </mxCell>
        <mxCell id="WlaN15AEs9KgOEi6QGPo-162" value="" style="rounded=0;whiteSpace=wrap;html=1;fillColor=#2EC4B6;strokeColor=default;fontColor=default;" vertex="1" parent="WlaN15AEs9KgOEi6QGPo-1">
          <mxGeometry x="210.16000000000008" y="184.21000000000004" width="60" height="10" as="geometry" />
        </mxCell>
        <mxCell id="WlaN15AEs9KgOEi6QGPo-163" value="" style="rounded=0;whiteSpace=wrap;html=1;fillColor=#2EC4B6;strokeColor=default;fontColor=default;" vertex="1" parent="WlaN15AEs9KgOEi6QGPo-1">
          <mxGeometry x="202.16000000000008" y="190.21000000000004" width="60" height="10" as="geometry" />
        </mxCell>
        <mxCell id="WlaN15AEs9KgOEi6QGPo-164" value="" style="rounded=0;whiteSpace=wrap;html=1;fillColor=#2EC4B6;strokeColor=default;fontColor=default;" vertex="1" parent="WlaN15AEs9KgOEi6QGPo-1">
          <mxGeometry x="193.16000000000008" y="196.21000000000004" width="60" height="10" as="geometry" />
        </mxCell>
        <mxCell id="WlaN15AEs9KgOEi6QGPo-165" value="" style="rounded=0;whiteSpace=wrap;html=1;fillColor=#2EC4B6;strokeColor=default;fontColor=default;" vertex="1" parent="WlaN15AEs9KgOEi6QGPo-1">
          <mxGeometry x="184.16000000000008" y="201.21000000000004" width="60" height="10" as="geometry" />
        </mxCell>
        <mxCell id="WlaN15AEs9KgOEi6QGPo-166" value="" style="rounded=0;whiteSpace=wrap;html=1;fillColor=#E71d36;strokeColor=default;fontColor=default;" vertex="1" parent="WlaN15AEs9KgOEi6QGPo-1">
          <mxGeometry x="397.5000000000001" y="158.21000000000004" width="60" height="10" as="geometry" />
        </mxCell>
        <mxCell id="WlaN15AEs9KgOEi6QGPo-167" value="" style="rounded=0;whiteSpace=wrap;html=1;fillColor=#E71D36;strokeColor=default;fontColor=default;" vertex="1" parent="WlaN15AEs9KgOEi6QGPo-1">
          <mxGeometry x="382.5000000000001" y="184.21000000000004" width="60" height="10" as="geometry" />
        </mxCell>
        <mxCell id="WlaN15AEs9KgOEi6QGPo-168" value="" style="rounded=0;whiteSpace=wrap;html=1;fillColor=#E71D36;strokeColor=default;fontColor=default;" vertex="1" parent="WlaN15AEs9KgOEi6QGPo-1">
          <mxGeometry x="374.5000000000001" y="190.21000000000004" width="60" height="10" as="geometry" />
        </mxCell>
        <mxCell id="WlaN15AEs9KgOEi6QGPo-169" value="" style="rounded=0;whiteSpace=wrap;html=1;fillColor=#E71D36;strokeColor=default;fontColor=default;" vertex="1" parent="WlaN15AEs9KgOEi6QGPo-1">
          <mxGeometry x="365.5000000000001" y="196.21000000000004" width="60" height="10" as="geometry" />
        </mxCell>
        <mxCell id="WlaN15AEs9KgOEi6QGPo-170" value="" style="rounded=0;whiteSpace=wrap;html=1;fillColor=#E71D36;strokeColor=default;fontColor=default;" vertex="1" parent="WlaN15AEs9KgOEi6QGPo-1">
          <mxGeometry x="357.5000000000001" y="201.21000000000004" width="60" height="10" as="geometry" />
        </mxCell>
        <mxCell id="WlaN15AEs9KgOEi6QGPo-171" value="" style="rounded=0;whiteSpace=wrap;html=1;fillColor=#FF9f1c;strokeColor=default;fontColor=default;" vertex="1" parent="WlaN15AEs9KgOEi6QGPo-1">
          <mxGeometry x="540" y="158.21000000000004" width="60" height="10" as="geometry" />
        </mxCell>
        <mxCell id="WlaN15AEs9KgOEi6QGPo-172" value="" style="rounded=0;whiteSpace=wrap;html=1;fillColor=#FF9F1C;strokeColor=default;fontColor=default;" vertex="1" parent="WlaN15AEs9KgOEi6QGPo-1">
          <mxGeometry x="525" y="184.21000000000004" width="60" height="10" as="geometry" />
        </mxCell>
        <mxCell id="WlaN15AEs9KgOEi6QGPo-173" value="" style="rounded=0;whiteSpace=wrap;html=1;fillColor=#FF9F1C;strokeColor=default;fontColor=default;" vertex="1" parent="WlaN15AEs9KgOEi6QGPo-1">
          <mxGeometry x="517.0000000000001" y="190.21000000000004" width="60" height="10" as="geometry" />
        </mxCell>
        <mxCell id="WlaN15AEs9KgOEi6QGPo-174" value="" style="rounded=0;whiteSpace=wrap;html=1;fillColor=#FF9F1C;strokeColor=default;fontColor=default;" vertex="1" parent="WlaN15AEs9KgOEi6QGPo-1">
          <mxGeometry x="508.0000000000001" y="196.21000000000004" width="60" height="10" as="geometry" />
        </mxCell>
        <mxCell id="WlaN15AEs9KgOEi6QGPo-175" value="" style="rounded=0;whiteSpace=wrap;html=1;fillColor=#FF9F1C;strokeColor=default;fontColor=default;" vertex="1" parent="WlaN15AEs9KgOEi6QGPo-1">
          <mxGeometry x="500.0000000000001" y="201.21000000000004" width="60" height="10" as="geometry" />
        </mxCell>
        <mxCell id="WlaN15AEs9KgOEi6QGPo-176" value="&lt;font face=&quot;Times New Roman&quot; style=&quot;font-size: 16px&quot;&gt;GAP&lt;/font&gt;" style="text;html=1;strokeColor=none;fillColor=none;align=center;verticalAlign=middle;whiteSpace=wrap;rounded=0;shadow=0;glass=0;labelBackgroundColor=none;sketch=0;fontSize=18;fontColor=default;" vertex="1" parent="WlaN15AEs9KgOEi6QGPo-1">
          <mxGeometry x="642.82" y="176" width="60" height="30" as="geometry" />
        </mxCell>
        <mxCell id="WlaN15AEs9KgOEi6QGPo-177" value="" style="edgeStyle=elbowEdgeStyle;elbow=vertical;endArrow=classic;html=1;rounded=0;labelBackgroundColor=default;fontFamily=Times New Roman;fontSize=16;fontColor=default;strokeColor=default;fillColor=default;" edge="1" parent="WlaN15AEs9KgOEi6QGPo-1">
          <mxGeometry width="50" height="50" relative="1" as="geometry">
            <mxPoint x="322.9000000000001" y="191" as="sourcePoint" />
            <mxPoint x="1134.9" y="180" as="targetPoint" />
            <Array as="points">
              <mxPoint x="732.9000000000001" y="120" />
            </Array>
          </mxGeometry>
        </mxCell>
        <mxCell id="WlaN15AEs9KgOEi6QGPo-178" value="$$\times3$$" style="text;html=1;strokeColor=none;fillColor=none;align=center;verticalAlign=middle;whiteSpace=wrap;rounded=0;shadow=0;glass=0;labelBackgroundColor=none;sketch=0;fontFamily=Times New Roman;fontSize=16;fontColor=default;" vertex="1" parent="WlaN15AEs9KgOEi6QGPo-1">
          <mxGeometry x="1120.8400000000001" y="90" width="60" height="30" as="geometry" />
        </mxCell>
        <mxCell id="WlaN15AEs9KgOEi6QGPo-179" value="&lt;font style=&quot;font-size: 16px&quot;&gt;LSTM&lt;/font&gt;" style="text;html=1;strokeColor=default;fillColor=#ffafcc;align=center;verticalAlign=middle;whiteSpace=wrap;rounded=0;labelBackgroundColor=none;fontFamily=Times New Roman;fontSize=14;fontColor=default;" vertex="1" parent="WlaN15AEs9KgOEi6QGPo-1">
          <mxGeometry x="790.9000000000001" y="332" width="60" height="30" as="geometry" />
        </mxCell>
        <mxCell id="WlaN15AEs9KgOEi6QGPo-180" value="" style="group;fontColor=default;" vertex="1" connectable="0" parent="WlaN15AEs9KgOEi6QGPo-1">
          <mxGeometry x="632.9000000000001" y="337" width="99.33000000000004" height="20" as="geometry" />
        </mxCell>
        <mxCell id="WlaN15AEs9KgOEi6QGPo-181" value="&lt;b&gt;&lt;font style=&quot;font-size: 14px&quot;&gt;...&lt;/font&gt;&lt;/b&gt;" style="text;html=1;strokeColor=none;fillColor=none;align=center;verticalAlign=middle;whiteSpace=wrap;rounded=0;labelBackgroundColor=none;fontFamily=Times New Roman;fontSize=16;fontColor=default;" vertex="1" parent="WlaN15AEs9KgOEi6QGPo-180">
          <mxGeometry x="27.998993288590555" width="39.9986577181208" height="10.666666666666666" as="geometry" />
        </mxCell>
        <mxCell id="WlaN15AEs9KgOEi6QGPo-182" value="" style="rounded=1;whiteSpace=wrap;html=1;labelBackgroundColor=default;fontFamily=Times New Roman;fontSize=16;fontColor=default;strokeColor=default;fillColor=none;" vertex="1" parent="WlaN15AEs9KgOEi6QGPo-180">
          <mxGeometry width="99.33" height="20" as="geometry" />
        </mxCell>
        <mxCell id="WlaN15AEs9KgOEi6QGPo-183" value="" style="ellipse;whiteSpace=wrap;html=1;aspect=fixed;labelBackgroundColor=default;fontFamily=Times New Roman;fontSize=16;fontColor=default;strokeColor=default;fillColor=#FFEE32;" vertex="1" parent="WlaN15AEs9KgOEi6QGPo-180">
          <mxGeometry x="4.045612389380494" y="3.3333333333333144" width="13.332885906040268" height="13.332885906040268" as="geometry" />
        </mxCell>
        <mxCell id="WlaN15AEs9KgOEi6QGPo-184" value="" style="ellipse;whiteSpace=wrap;html=1;aspect=fixed;labelBackgroundColor=default;fontFamily=Times New Roman;fontSize=16;fontColor=default;strokeColor=default;fillColor=#FFEE32;" vertex="1" parent="WlaN15AEs9KgOEi6QGPo-180">
          <mxGeometry x="23.333991655283057" y="3.3333333333333144" width="13.332885906040268" height="13.332885906040268" as="geometry" />
        </mxCell>
        <mxCell id="WlaN15AEs9KgOEi6QGPo-185" value="" style="ellipse;whiteSpace=wrap;html=1;aspect=fixed;labelBackgroundColor=default;fontFamily=Times New Roman;fontSize=16;fontColor=default;strokeColor=default;fillColor=#FFEE32;" vertex="1" parent="WlaN15AEs9KgOEi6QGPo-180">
          <mxGeometry x="59.28706242204669" y="3.3333333333333144" width="13.332885906040268" height="13.332885906040268" as="geometry" />
        </mxCell>
        <mxCell id="WlaN15AEs9KgOEi6QGPo-186" value="" style="ellipse;whiteSpace=wrap;html=1;aspect=fixed;labelBackgroundColor=default;fontFamily=Times New Roman;fontSize=16;fontColor=default;strokeColor=default;fillColor=#FFEE32;" vertex="1" parent="WlaN15AEs9KgOEi6QGPo-180">
          <mxGeometry x="78.34689478529424" y="3.3333333333333144" width="13.332885906040268" height="13.332885906040268" as="geometry" />
        </mxCell>
        <mxCell id="WlaN15AEs9KgOEi6QGPo-187" value="" style="group;fontColor=default;" vertex="1" connectable="0" parent="WlaN15AEs9KgOEi6QGPo-1">
          <mxGeometry x="633.0000000000001" y="397" width="99.33000000000004" height="20" as="geometry" />
        </mxCell>
        <mxCell id="WlaN15AEs9KgOEi6QGPo-188" value="&lt;b&gt;&lt;font style=&quot;font-size: 14px&quot;&gt;...&lt;/font&gt;&lt;/b&gt;" style="text;html=1;strokeColor=none;fillColor=none;align=center;verticalAlign=middle;whiteSpace=wrap;rounded=0;labelBackgroundColor=none;fontFamily=Times New Roman;fontSize=16;fontColor=default;" vertex="1" parent="WlaN15AEs9KgOEi6QGPo-187">
          <mxGeometry x="27.998993288590555" width="39.9986577181208" height="10.666666666666666" as="geometry" />
        </mxCell>
        <mxCell id="WlaN15AEs9KgOEi6QGPo-189" value="" style="rounded=1;whiteSpace=wrap;html=1;labelBackgroundColor=default;fontFamily=Times New Roman;fontSize=16;fontColor=default;strokeColor=default;fillColor=none;" vertex="1" parent="WlaN15AEs9KgOEi6QGPo-187">
          <mxGeometry width="99.33" height="20" as="geometry" />
        </mxCell>
        <mxCell id="WlaN15AEs9KgOEi6QGPo-190" value="" style="ellipse;whiteSpace=wrap;html=1;aspect=fixed;labelBackgroundColor=default;fontFamily=Times New Roman;fontSize=16;fontColor=default;strokeColor=default;fillColor=#FFEE32;" vertex="1" parent="WlaN15AEs9KgOEi6QGPo-187">
          <mxGeometry x="4.045612389380494" y="3.3333333333333144" width="13.332885906040268" height="13.332885906040268" as="geometry" />
        </mxCell>
        <mxCell id="WlaN15AEs9KgOEi6QGPo-191" value="" style="ellipse;whiteSpace=wrap;html=1;aspect=fixed;labelBackgroundColor=default;fontFamily=Times New Roman;fontSize=16;fontColor=default;strokeColor=default;fillColor=#FFEE32;" vertex="1" parent="WlaN15AEs9KgOEi6QGPo-187">
          <mxGeometry x="23.333991655283057" y="3.3333333333333144" width="13.332885906040268" height="13.332885906040268" as="geometry" />
        </mxCell>
        <mxCell id="WlaN15AEs9KgOEi6QGPo-192" value="" style="ellipse;whiteSpace=wrap;html=1;aspect=fixed;labelBackgroundColor=default;fontFamily=Times New Roman;fontSize=16;fontColor=default;strokeColor=default;fillColor=#FFEE32;" vertex="1" parent="WlaN15AEs9KgOEi6QGPo-187">
          <mxGeometry x="59.28706242204669" y="3.3333333333333144" width="13.332885906040268" height="13.332885906040268" as="geometry" />
        </mxCell>
        <mxCell id="WlaN15AEs9KgOEi6QGPo-193" value="" style="ellipse;whiteSpace=wrap;html=1;aspect=fixed;labelBackgroundColor=default;fontFamily=Times New Roman;fontSize=16;fontColor=default;strokeColor=default;fillColor=#FFEE32;" vertex="1" parent="WlaN15AEs9KgOEi6QGPo-187">
          <mxGeometry x="78.34689478529424" y="3.3333333333333144" width="13.332885906040268" height="13.332885906040268" as="geometry" />
        </mxCell>
        <mxCell id="WlaN15AEs9KgOEi6QGPo-194" value="" style="group;fontColor=default;" vertex="1" connectable="0" parent="WlaN15AEs9KgOEi6QGPo-1">
          <mxGeometry x="633.0000000000001" y="497" width="99.33000000000004" height="20" as="geometry" />
        </mxCell>
        <mxCell id="WlaN15AEs9KgOEi6QGPo-195" value="&lt;b&gt;&lt;font style=&quot;font-size: 14px&quot;&gt;...&lt;/font&gt;&lt;/b&gt;" style="text;html=1;strokeColor=none;fillColor=none;align=center;verticalAlign=middle;whiteSpace=wrap;rounded=0;labelBackgroundColor=none;fontFamily=Times New Roman;fontSize=16;fontColor=default;" vertex="1" parent="WlaN15AEs9KgOEi6QGPo-194">
          <mxGeometry x="27.998993288590555" width="39.9986577181208" height="10.666666666666666" as="geometry" />
        </mxCell>
        <mxCell id="WlaN15AEs9KgOEi6QGPo-196" value="" style="rounded=1;whiteSpace=wrap;html=1;labelBackgroundColor=default;fontFamily=Times New Roman;fontSize=16;fontColor=default;strokeColor=default;fillColor=none;" vertex="1" parent="WlaN15AEs9KgOEi6QGPo-194">
          <mxGeometry width="99.33" height="20" as="geometry" />
        </mxCell>
        <mxCell id="WlaN15AEs9KgOEi6QGPo-197" value="" style="ellipse;whiteSpace=wrap;html=1;aspect=fixed;labelBackgroundColor=default;fontFamily=Times New Roman;fontSize=16;fontColor=default;strokeColor=default;fillColor=#FFEE32;" vertex="1" parent="WlaN15AEs9KgOEi6QGPo-194">
          <mxGeometry x="4.045612389380494" y="3.3333333333333144" width="13.332885906040268" height="13.332885906040268" as="geometry" />
        </mxCell>
        <mxCell id="WlaN15AEs9KgOEi6QGPo-198" value="" style="ellipse;whiteSpace=wrap;html=1;aspect=fixed;labelBackgroundColor=default;fontFamily=Times New Roman;fontSize=16;fontColor=default;strokeColor=default;fillColor=#FFEE32;" vertex="1" parent="WlaN15AEs9KgOEi6QGPo-194">
          <mxGeometry x="23.333991655283057" y="3.3333333333333144" width="13.332885906040268" height="13.332885906040268" as="geometry" />
        </mxCell>
        <mxCell id="WlaN15AEs9KgOEi6QGPo-199" value="" style="ellipse;whiteSpace=wrap;html=1;aspect=fixed;labelBackgroundColor=default;fontFamily=Times New Roman;fontSize=16;fontColor=default;strokeColor=default;fillColor=#FFEE32;" vertex="1" parent="WlaN15AEs9KgOEi6QGPo-194">
          <mxGeometry x="59.28706242204669" y="3.3333333333333144" width="13.332885906040268" height="13.332885906040268" as="geometry" />
        </mxCell>
        <mxCell id="WlaN15AEs9KgOEi6QGPo-200" value="" style="ellipse;whiteSpace=wrap;html=1;aspect=fixed;labelBackgroundColor=default;fontFamily=Times New Roman;fontSize=16;fontColor=default;strokeColor=default;fillColor=#FFEE32;" vertex="1" parent="WlaN15AEs9KgOEi6QGPo-194">
          <mxGeometry x="78.34689478529424" y="3.3333333333333144" width="13.332885906040268" height="13.332885906040268" as="geometry" />
        </mxCell>
        <mxCell id="WlaN15AEs9KgOEi6QGPo-201" value="" style="group;fontColor=default;" vertex="1" connectable="0" parent="WlaN15AEs9KgOEi6QGPo-1">
          <mxGeometry x="633" y="557" width="99.33000000000004" height="20" as="geometry" />
        </mxCell>
        <mxCell id="WlaN15AEs9KgOEi6QGPo-202" value="&lt;b&gt;&lt;font style=&quot;font-size: 14px&quot;&gt;...&lt;/font&gt;&lt;/b&gt;" style="text;html=1;strokeColor=none;fillColor=none;align=center;verticalAlign=middle;whiteSpace=wrap;rounded=0;labelBackgroundColor=none;fontFamily=Times New Roman;fontSize=16;fontColor=default;" vertex="1" parent="WlaN15AEs9KgOEi6QGPo-201">
          <mxGeometry x="27.998993288590555" width="39.9986577181208" height="10.666666666666666" as="geometry" />
        </mxCell>
        <mxCell id="WlaN15AEs9KgOEi6QGPo-203" value="" style="rounded=1;whiteSpace=wrap;html=1;labelBackgroundColor=default;fontFamily=Times New Roman;fontSize=16;fontColor=default;strokeColor=default;fillColor=none;" vertex="1" parent="WlaN15AEs9KgOEi6QGPo-201">
          <mxGeometry width="99.33" height="20" as="geometry" />
        </mxCell>
        <mxCell id="WlaN15AEs9KgOEi6QGPo-204" value="" style="ellipse;whiteSpace=wrap;html=1;aspect=fixed;labelBackgroundColor=default;fontFamily=Times New Roman;fontSize=16;fontColor=default;strokeColor=default;fillColor=#FFEE32;" vertex="1" parent="WlaN15AEs9KgOEi6QGPo-201">
          <mxGeometry x="4.045612389380494" y="3.3333333333333144" width="13.332885906040268" height="13.332885906040268" as="geometry" />
        </mxCell>
        <mxCell id="WlaN15AEs9KgOEi6QGPo-205" value="" style="ellipse;whiteSpace=wrap;html=1;aspect=fixed;labelBackgroundColor=default;fontFamily=Times New Roman;fontSize=16;fontColor=default;strokeColor=default;fillColor=#FFEE32;" vertex="1" parent="WlaN15AEs9KgOEi6QGPo-201">
          <mxGeometry x="23.333991655283057" y="3.3333333333333144" width="13.332885906040268" height="13.332885906040268" as="geometry" />
        </mxCell>
        <mxCell id="WlaN15AEs9KgOEi6QGPo-206" value="" style="ellipse;whiteSpace=wrap;html=1;aspect=fixed;labelBackgroundColor=default;fontFamily=Times New Roman;fontSize=16;fontColor=default;strokeColor=default;fillColor=#FFEE32;" vertex="1" parent="WlaN15AEs9KgOEi6QGPo-201">
          <mxGeometry x="59.28706242204669" y="3.3333333333333144" width="13.332885906040268" height="13.332885906040268" as="geometry" />
        </mxCell>
        <mxCell id="WlaN15AEs9KgOEi6QGPo-207" value="" style="ellipse;whiteSpace=wrap;html=1;aspect=fixed;labelBackgroundColor=default;fontFamily=Times New Roman;fontSize=16;fontColor=default;strokeColor=default;fillColor=#FFEE32;" vertex="1" parent="WlaN15AEs9KgOEi6QGPo-201">
          <mxGeometry x="78.34689478529424" y="3.3333333333333144" width="13.332885906040268" height="13.332885906040268" as="geometry" />
        </mxCell>
        <mxCell id="WlaN15AEs9KgOEi6QGPo-208" value="" style="group;fontColor=default;" vertex="1" connectable="0" parent="WlaN15AEs9KgOEi6QGPo-1">
          <mxGeometry x="972.9000000000001" y="367" width="99.32999999999993" height="20" as="geometry" />
        </mxCell>
        <mxCell id="WlaN15AEs9KgOEi6QGPo-209" value="&lt;font style=&quot;font-size: 14px&quot;&gt;&lt;b&gt;...&lt;/b&gt;&lt;/font&gt;" style="text;html=1;strokeColor=none;fillColor=none;align=center;verticalAlign=middle;whiteSpace=wrap;rounded=0;labelBackgroundColor=none;fontFamily=Times New Roman;fontSize=16;fontColor=default;" vertex="1" parent="WlaN15AEs9KgOEi6QGPo-208">
          <mxGeometry x="28.998993288590555" width="39.9986577181208" height="10.666666666666666" as="geometry" />
        </mxCell>
        <mxCell id="WlaN15AEs9KgOEi6QGPo-210" value="" style="rounded=1;whiteSpace=wrap;html=1;labelBackgroundColor=default;fontFamily=Times New Roman;fontSize=16;fontColor=default;strokeColor=default;fillColor=none;" vertex="1" parent="WlaN15AEs9KgOEi6QGPo-208">
          <mxGeometry width="99.33" height="20" as="geometry" />
        </mxCell>
        <mxCell id="WlaN15AEs9KgOEi6QGPo-211" value="" style="ellipse;whiteSpace=wrap;html=1;aspect=fixed;labelBackgroundColor=default;fontFamily=Times New Roman;fontSize=16;fontColor=default;strokeColor=default;fillColor=#7AE582;" vertex="1" parent="WlaN15AEs9KgOEi6QGPo-208">
          <mxGeometry x="5.045612389380494" y="3.3333333333333144" width="13.332885906040268" height="13.332885906040268" as="geometry" />
        </mxCell>
        <mxCell id="WlaN15AEs9KgOEi6QGPo-212" value="" style="ellipse;whiteSpace=wrap;html=1;aspect=fixed;labelBackgroundColor=default;fontFamily=Times New Roman;fontSize=16;fontColor=default;strokeColor=default;fillColor=#7AE582;" vertex="1" parent="WlaN15AEs9KgOEi6QGPo-208">
          <mxGeometry x="24.333991655283057" y="3.3333333333333144" width="13.332885906040268" height="13.332885906040268" as="geometry" />
        </mxCell>
        <mxCell id="WlaN15AEs9KgOEi6QGPo-213" value="" style="ellipse;whiteSpace=wrap;html=1;aspect=fixed;labelBackgroundColor=default;fontFamily=Times New Roman;fontSize=16;fontColor=default;strokeColor=default;fillColor=#7AE582;" vertex="1" parent="WlaN15AEs9KgOEi6QGPo-208">
          <mxGeometry x="60.287062422046574" y="3.3333333333333144" width="13.332885906040268" height="13.332885906040268" as="geometry" />
        </mxCell>
        <mxCell id="WlaN15AEs9KgOEi6QGPo-214" value="" style="ellipse;whiteSpace=wrap;html=1;aspect=fixed;labelBackgroundColor=default;fontFamily=Times New Roman;fontSize=16;fontColor=default;strokeColor=default;fillColor=#7AE582;" vertex="1" parent="WlaN15AEs9KgOEi6QGPo-208">
          <mxGeometry x="79.34689478529435" y="3.3333333333333144" width="13.332885906040268" height="13.332885906040268" as="geometry" />
        </mxCell>
        <mxCell id="WlaN15AEs9KgOEi6QGPo-215" value="" style="group;fontColor=default;" vertex="1" connectable="0" parent="WlaN15AEs9KgOEi6QGPo-1">
          <mxGeometry x="972.9000000000001" y="307" width="99.32999999999993" height="20" as="geometry" />
        </mxCell>
        <mxCell id="WlaN15AEs9KgOEi6QGPo-216" value="&lt;font style=&quot;font-size: 14px&quot;&gt;&lt;b&gt;...&lt;/b&gt;&lt;/font&gt;" style="text;html=1;strokeColor=none;fillColor=none;align=center;verticalAlign=middle;whiteSpace=wrap;rounded=0;labelBackgroundColor=none;fontFamily=Times New Roman;fontSize=16;fontColor=default;" vertex="1" parent="WlaN15AEs9KgOEi6QGPo-215">
          <mxGeometry x="28.998993288590555" width="39.9986577181208" height="10.666666666666666" as="geometry" />
        </mxCell>
        <mxCell id="WlaN15AEs9KgOEi6QGPo-217" value="" style="rounded=1;whiteSpace=wrap;html=1;labelBackgroundColor=default;fontFamily=Times New Roman;fontSize=16;fontColor=default;strokeColor=default;fillColor=none;" vertex="1" parent="WlaN15AEs9KgOEi6QGPo-215">
          <mxGeometry width="99.33" height="20" as="geometry" />
        </mxCell>
        <mxCell id="WlaN15AEs9KgOEi6QGPo-218" value="" style="ellipse;whiteSpace=wrap;html=1;aspect=fixed;labelBackgroundColor=default;fontFamily=Times New Roman;fontSize=16;fontColor=default;strokeColor=default;fillColor=#7AE582;" vertex="1" parent="WlaN15AEs9KgOEi6QGPo-215">
          <mxGeometry x="5.045612389380494" y="3.3333333333333144" width="13.332885906040268" height="13.332885906040268" as="geometry" />
        </mxCell>
        <mxCell id="WlaN15AEs9KgOEi6QGPo-219" value="" style="ellipse;whiteSpace=wrap;html=1;aspect=fixed;labelBackgroundColor=default;fontFamily=Times New Roman;fontSize=16;fontColor=default;strokeColor=default;fillColor=#7AE582;" vertex="1" parent="WlaN15AEs9KgOEi6QGPo-215">
          <mxGeometry x="24.333991655283057" y="3.3333333333333144" width="13.332885906040268" height="13.332885906040268" as="geometry" />
        </mxCell>
        <mxCell id="WlaN15AEs9KgOEi6QGPo-220" value="" style="ellipse;whiteSpace=wrap;html=1;aspect=fixed;labelBackgroundColor=default;fontFamily=Times New Roman;fontSize=16;fontColor=default;strokeColor=default;fillColor=#7AE582;" vertex="1" parent="WlaN15AEs9KgOEi6QGPo-215">
          <mxGeometry x="60.287062422046574" y="3.3333333333333144" width="13.332885906040268" height="13.332885906040268" as="geometry" />
        </mxCell>
        <mxCell id="WlaN15AEs9KgOEi6QGPo-221" value="" style="ellipse;whiteSpace=wrap;html=1;aspect=fixed;labelBackgroundColor=default;fontFamily=Times New Roman;fontSize=16;fontColor=default;strokeColor=default;fillColor=#7AE582;" vertex="1" parent="WlaN15AEs9KgOEi6QGPo-215">
          <mxGeometry x="79.34689478529435" y="3.3333333333333144" width="13.332885906040268" height="13.332885906040268" as="geometry" />
        </mxCell>
        <mxCell id="WlaN15AEs9KgOEi6QGPo-222" value="" style="group;fontColor=default;" vertex="1" connectable="0" parent="WlaN15AEs9KgOEi6QGPo-1">
          <mxGeometry x="973" y="467" width="99.32999999999993" height="20" as="geometry" />
        </mxCell>
        <mxCell id="WlaN15AEs9KgOEi6QGPo-223" value="&lt;font style=&quot;font-size: 14px&quot;&gt;&lt;b&gt;...&lt;/b&gt;&lt;/font&gt;" style="text;html=1;strokeColor=none;fillColor=none;align=center;verticalAlign=middle;whiteSpace=wrap;rounded=0;labelBackgroundColor=none;fontFamily=Times New Roman;fontSize=16;fontColor=default;" vertex="1" parent="WlaN15AEs9KgOEi6QGPo-222">
          <mxGeometry x="28.998993288590555" width="39.9986577181208" height="10.666666666666666" as="geometry" />
        </mxCell>
        <mxCell id="WlaN15AEs9KgOEi6QGPo-224" value="" style="rounded=1;whiteSpace=wrap;html=1;labelBackgroundColor=default;fontFamily=Times New Roman;fontSize=16;fontColor=default;strokeColor=default;fillColor=none;" vertex="1" parent="WlaN15AEs9KgOEi6QGPo-222">
          <mxGeometry width="99.33" height="20" as="geometry" />
        </mxCell>
        <mxCell id="WlaN15AEs9KgOEi6QGPo-225" value="" style="ellipse;whiteSpace=wrap;html=1;aspect=fixed;labelBackgroundColor=default;fontFamily=Times New Roman;fontSize=16;fontColor=default;strokeColor=default;fillColor=#7AE582;" vertex="1" parent="WlaN15AEs9KgOEi6QGPo-222">
          <mxGeometry x="5.045612389380494" y="3.3333333333333144" width="13.332885906040268" height="13.332885906040268" as="geometry" />
        </mxCell>
        <mxCell id="WlaN15AEs9KgOEi6QGPo-226" value="" style="ellipse;whiteSpace=wrap;html=1;aspect=fixed;labelBackgroundColor=default;fontFamily=Times New Roman;fontSize=16;fontColor=default;strokeColor=default;fillColor=#7AE582;" vertex="1" parent="WlaN15AEs9KgOEi6QGPo-222">
          <mxGeometry x="24.333991655283057" y="3.3333333333333144" width="13.332885906040268" height="13.332885906040268" as="geometry" />
        </mxCell>
        <mxCell id="WlaN15AEs9KgOEi6QGPo-227" value="" style="ellipse;whiteSpace=wrap;html=1;aspect=fixed;labelBackgroundColor=default;fontFamily=Times New Roman;fontSize=16;fontColor=default;strokeColor=default;fillColor=#7AE582;" vertex="1" parent="WlaN15AEs9KgOEi6QGPo-222">
          <mxGeometry x="60.287062422046574" y="3.3333333333333144" width="13.332885906040268" height="13.332885906040268" as="geometry" />
        </mxCell>
        <mxCell id="WlaN15AEs9KgOEi6QGPo-228" value="" style="ellipse;whiteSpace=wrap;html=1;aspect=fixed;labelBackgroundColor=default;fontFamily=Times New Roman;fontSize=16;fontColor=default;strokeColor=default;fillColor=#7AE582;" vertex="1" parent="WlaN15AEs9KgOEi6QGPo-222">
          <mxGeometry x="79.34689478529435" y="3.3333333333333144" width="13.332885906040268" height="13.332885906040268" as="geometry" />
        </mxCell>
        <mxCell id="WlaN15AEs9KgOEi6QGPo-229" value="" style="group;fontColor=default;" vertex="1" connectable="0" parent="WlaN15AEs9KgOEi6QGPo-1">
          <mxGeometry x="973" y="527" width="99.32999999999993" height="20" as="geometry" />
        </mxCell>
        <mxCell id="WlaN15AEs9KgOEi6QGPo-230" value="&lt;font style=&quot;font-size: 14px&quot;&gt;&lt;b&gt;...&lt;/b&gt;&lt;/font&gt;" style="text;html=1;strokeColor=none;fillColor=none;align=center;verticalAlign=middle;whiteSpace=wrap;rounded=0;labelBackgroundColor=none;fontFamily=Times New Roman;fontSize=16;fontColor=default;" vertex="1" parent="WlaN15AEs9KgOEi6QGPo-229">
          <mxGeometry x="28.998993288590555" width="39.9986577181208" height="10.666666666666666" as="geometry" />
        </mxCell>
        <mxCell id="WlaN15AEs9KgOEi6QGPo-231" value="" style="rounded=1;whiteSpace=wrap;html=1;labelBackgroundColor=default;fontFamily=Times New Roman;fontSize=16;fontColor=default;strokeColor=default;fillColor=none;" vertex="1" parent="WlaN15AEs9KgOEi6QGPo-229">
          <mxGeometry width="99.33" height="20" as="geometry" />
        </mxCell>
        <mxCell id="WlaN15AEs9KgOEi6QGPo-232" value="" style="ellipse;whiteSpace=wrap;html=1;aspect=fixed;labelBackgroundColor=default;fontFamily=Times New Roman;fontSize=16;fontColor=default;strokeColor=default;fillColor=#7AE582;" vertex="1" parent="WlaN15AEs9KgOEi6QGPo-229">
          <mxGeometry x="5.045612389380494" y="3.3333333333333144" width="13.332885906040268" height="13.332885906040268" as="geometry" />
        </mxCell>
        <mxCell id="WlaN15AEs9KgOEi6QGPo-233" value="" style="ellipse;whiteSpace=wrap;html=1;aspect=fixed;labelBackgroundColor=default;fontFamily=Times New Roman;fontSize=16;fontColor=default;strokeColor=default;fillColor=#7AE582;" vertex="1" parent="WlaN15AEs9KgOEi6QGPo-229">
          <mxGeometry x="24.333991655283057" y="3.3333333333333144" width="13.332885906040268" height="13.332885906040268" as="geometry" />
        </mxCell>
        <mxCell id="WlaN15AEs9KgOEi6QGPo-234" value="" style="ellipse;whiteSpace=wrap;html=1;aspect=fixed;labelBackgroundColor=default;fontFamily=Times New Roman;fontSize=16;fontColor=default;strokeColor=default;fillColor=#7AE582;" vertex="1" parent="WlaN15AEs9KgOEi6QGPo-229">
          <mxGeometry x="60.287062422046574" y="3.3333333333333144" width="13.332885906040268" height="13.332885906040268" as="geometry" />
        </mxCell>
        <mxCell id="WlaN15AEs9KgOEi6QGPo-235" value="" style="ellipse;whiteSpace=wrap;html=1;aspect=fixed;labelBackgroundColor=default;fontFamily=Times New Roman;fontSize=16;fontColor=default;strokeColor=default;fillColor=#7AE582;" vertex="1" parent="WlaN15AEs9KgOEi6QGPo-229">
          <mxGeometry x="79.34689478529435" y="3.3333333333333144" width="13.332885906040268" height="13.332885906040268" as="geometry" />
        </mxCell>
        <mxCell id="WlaN15AEs9KgOEi6QGPo-236" value="" style="group;fontColor=default;" vertex="1" connectable="0" parent="WlaN15AEs9KgOEi6QGPo-1">
          <mxGeometry x="1143" y="321" width="99.32999999999993" height="20" as="geometry" />
        </mxCell>
        <mxCell id="WlaN15AEs9KgOEi6QGPo-237" value="&lt;font style=&quot;font-size: 14px&quot;&gt;&lt;b&gt;...&lt;/b&gt;&lt;/font&gt;" style="text;html=1;strokeColor=none;fillColor=none;align=center;verticalAlign=middle;whiteSpace=wrap;rounded=0;labelBackgroundColor=none;fontFamily=Times New Roman;fontSize=16;fontColor=default;" vertex="1" parent="WlaN15AEs9KgOEi6QGPo-236">
          <mxGeometry x="28.998993288590555" width="39.9986577181208" height="10.666666666666666" as="geometry" />
        </mxCell>
        <mxCell id="WlaN15AEs9KgOEi6QGPo-238" value="" style="rounded=1;whiteSpace=wrap;html=1;labelBackgroundColor=default;fontFamily=Times New Roman;fontSize=16;fontColor=default;strokeColor=default;fillColor=none;" vertex="1" parent="WlaN15AEs9KgOEi6QGPo-236">
          <mxGeometry width="99.33" height="20" as="geometry" />
        </mxCell>
        <mxCell id="WlaN15AEs9KgOEi6QGPo-239" value="" style="ellipse;whiteSpace=wrap;html=1;aspect=fixed;labelBackgroundColor=default;fontFamily=Times New Roman;fontSize=16;fontColor=default;strokeColor=default;fillColor=#7AE582;" vertex="1" parent="WlaN15AEs9KgOEi6QGPo-236">
          <mxGeometry x="5.045612389380494" y="3.3333333333333144" width="13.332885906040268" height="13.332885906040268" as="geometry" />
        </mxCell>
        <mxCell id="WlaN15AEs9KgOEi6QGPo-240" value="" style="ellipse;whiteSpace=wrap;html=1;aspect=fixed;labelBackgroundColor=default;fontFamily=Times New Roman;fontSize=16;fontColor=default;strokeColor=default;fillColor=#7AE582;" vertex="1" parent="WlaN15AEs9KgOEi6QGPo-236">
          <mxGeometry x="24.333991655283057" y="3.3333333333333144" width="13.332885906040268" height="13.332885906040268" as="geometry" />
        </mxCell>
        <mxCell id="WlaN15AEs9KgOEi6QGPo-241" value="" style="ellipse;whiteSpace=wrap;html=1;aspect=fixed;labelBackgroundColor=default;fontFamily=Times New Roman;fontSize=16;fontColor=default;strokeColor=default;fillColor=#7AE582;" vertex="1" parent="WlaN15AEs9KgOEi6QGPo-236">
          <mxGeometry x="60.287062422046574" y="3.3333333333333144" width="13.332885906040268" height="13.332885906040268" as="geometry" />
        </mxCell>
        <mxCell id="WlaN15AEs9KgOEi6QGPo-242" value="" style="ellipse;whiteSpace=wrap;html=1;aspect=fixed;labelBackgroundColor=default;fontFamily=Times New Roman;fontSize=16;fontColor=default;strokeColor=default;fillColor=#7AE582;" vertex="1" parent="WlaN15AEs9KgOEi6QGPo-236">
          <mxGeometry x="79.34689478529435" y="3.3333333333333144" width="13.332885906040268" height="13.332885906040268" as="geometry" />
        </mxCell>
      </root>
    </mxGraphModel>
  </diagram>
  <diagram id="rQDtqE68soqFC5oIV3gk" name="Page-3">
    <mxGraphModel dx="593" dy="313" grid="1" gridSize="10" guides="1" tooltips="1" connect="1" arrows="1" fold="1" page="1" pageScale="1" pageWidth="1300" pageHeight="800" math="1" shadow="0">
      <root>
        <mxCell id="3JynUb4Shd6j02WHetgl-0" />
        <mxCell id="3JynUb4Shd6j02WHetgl-1" parent="3JynUb4Shd6j02WHetgl-0" />
        <mxCell id="ULxVSvxl0H2O9ZRTXCv_-0" value="" style="endArrow=classic;html=1;strokeColor=default;labelBackgroundColor=default;fontColor=default;entryX=0.5;entryY=1;entryDx=0;entryDy=0;exitX=0;exitY=0.5;exitDx=0;exitDy=0;strokeWidth=2;" edge="1" parent="3JynUb4Shd6j02WHetgl-1" source="ULxVSvxl0H2O9ZRTXCv_-9" target="y80BbPav3G4LZEtt8_cu-6">
          <mxGeometry width="50" height="50" relative="1" as="geometry">
            <mxPoint x="520" y="552" as="sourcePoint" />
            <mxPoint x="580" y="560" as="targetPoint" />
          </mxGeometry>
        </mxCell>
        <mxCell id="ULxVSvxl0H2O9ZRTXCv_-1" value="" style="endArrow=classic;html=1;entryX=0.5;entryY=0;entryDx=0;entryDy=0;strokeColor=default;labelBackgroundColor=default;fontColor=default;strokeWidth=2;" edge="1" parent="3JynUb4Shd6j02WHetgl-1" target="ULxVSvxl0H2O9ZRTXCv_-5">
          <mxGeometry width="50" height="50" relative="1" as="geometry">
            <mxPoint x="391" y="270" as="sourcePoint" />
            <mxPoint x="421" y="290" as="targetPoint" />
          </mxGeometry>
        </mxCell>
        <mxCell id="ULxVSvxl0H2O9ZRTXCv_-2" value="&lt;font style=&quot;font-size: 14px&quot;&gt;Cnov&lt;/font&gt;" style="rounded=0;whiteSpace=wrap;html=1;strokeColor=default;labelBackgroundColor=none;fontColor=default;fillColor=#CCCCFF;strokeWidth=1;" vertex="1" parent="3JynUb4Shd6j02WHetgl-1">
          <mxGeometry x="347" y="180" width="90" height="30" as="geometry" />
        </mxCell>
        <mxCell id="ULxVSvxl0H2O9ZRTXCv_-3" value="" style="endArrow=classic;html=1;strokeColor=default;labelBackgroundColor=default;fontColor=default;exitX=0.5;exitY=1;exitDx=0;exitDy=0;entryX=0.5;entryY=0;entryDx=0;entryDy=0;strokeWidth=2;" edge="1" parent="3JynUb4Shd6j02WHetgl-1" source="ULxVSvxl0H2O9ZRTXCv_-2" target="ULxVSvxl0H2O9ZRTXCv_-4">
          <mxGeometry width="50" height="50" relative="1" as="geometry">
            <mxPoint x="391.5" y="220" as="sourcePoint" />
            <mxPoint x="391.5" y="240" as="targetPoint" />
          </mxGeometry>
        </mxCell>
        <mxCell id="ULxVSvxl0H2O9ZRTXCv_-4" value="&lt;font style=&quot;font-size: 14px&quot;&gt;Cnov&lt;/font&gt;" style="rounded=0;whiteSpace=wrap;html=1;strokeColor=default;labelBackgroundColor=none;fontColor=default;fillColor=#CCCCFF;" vertex="1" parent="3JynUb4Shd6j02WHetgl-1">
          <mxGeometry x="347" y="240" width="90" height="30" as="geometry" />
        </mxCell>
        <mxCell id="ULxVSvxl0H2O9ZRTXCv_-5" value="&lt;font style=&quot;font-size: 14px&quot;&gt;GAP&lt;/font&gt;" style="rounded=0;whiteSpace=wrap;html=1;strokeColor=default;labelBackgroundColor=none;fontColor=default;fillColor=#CCCCFF;" vertex="1" parent="3JynUb4Shd6j02WHetgl-1">
          <mxGeometry x="524" y="290" width="60" height="30" as="geometry" />
        </mxCell>
        <mxCell id="ULxVSvxl0H2O9ZRTXCv_-6" value="&lt;font style=&quot;font-size: 14px&quot;&gt;FC&lt;/font&gt;" style="rounded=0;whiteSpace=wrap;html=1;strokeColor=default;labelBackgroundColor=none;fontColor=default;fillColor=#CCCCFF;" vertex="1" parent="3JynUb4Shd6j02WHetgl-1">
          <mxGeometry x="524" y="354" width="60" height="30" as="geometry" />
        </mxCell>
        <mxCell id="ULxVSvxl0H2O9ZRTXCv_-7" value="&lt;font style=&quot;font-size: 14px&quot;&gt;ReLU&lt;/font&gt;" style="rounded=0;whiteSpace=wrap;html=1;strokeColor=default;labelBackgroundColor=none;fontColor=default;fillColor=#CCCCFF;" vertex="1" parent="3JynUb4Shd6j02WHetgl-1">
          <mxGeometry x="524" y="415" width="60" height="30" as="geometry" />
        </mxCell>
        <mxCell id="ULxVSvxl0H2O9ZRTXCv_-8" value="&lt;font style=&quot;font-size: 14px&quot;&gt;FC&lt;/font&gt;" style="rounded=0;whiteSpace=wrap;html=1;strokeColor=default;labelBackgroundColor=none;fontColor=default;fillColor=#CCCCFF;" vertex="1" parent="3JynUb4Shd6j02WHetgl-1">
          <mxGeometry x="524" y="476" width="60" height="30" as="geometry" />
        </mxCell>
        <mxCell id="ULxVSvxl0H2O9ZRTXCv_-9" value="&lt;font style=&quot;font-size: 14px&quot;&gt;Sigmoid&lt;/font&gt;" style="rounded=0;whiteSpace=wrap;html=1;strokeColor=default;labelBackgroundColor=none;fontColor=default;fillColor=#CCCCFF;" vertex="1" parent="3JynUb4Shd6j02WHetgl-1">
          <mxGeometry x="524" y="537" width="60" height="30" as="geometry" />
        </mxCell>
        <mxCell id="ULxVSvxl0H2O9ZRTXCv_-11" value="" style="endArrow=classic;html=1;strokeColor=default;labelBackgroundColor=default;fontColor=default;fillColor=default;entryX=0.5;entryY=0;entryDx=0;entryDy=0;exitX=0.5;exitY=1;exitDx=0;exitDy=0;strokeWidth=2;" edge="1" parent="3JynUb4Shd6j02WHetgl-1" source="ULxVSvxl0H2O9ZRTXCv_-5" target="ULxVSvxl0H2O9ZRTXCv_-6">
          <mxGeometry width="50" height="50" relative="1" as="geometry">
            <mxPoint x="555.5" y="320" as="sourcePoint" />
            <mxPoint x="555.5" y="340" as="targetPoint" />
          </mxGeometry>
        </mxCell>
        <mxCell id="ULxVSvxl0H2O9ZRTXCv_-12" value="" style="endArrow=classic;html=1;strokeColor=default;labelBackgroundColor=default;fontColor=default;fillColor=default;entryX=0.5;entryY=0;entryDx=0;entryDy=0;exitX=0.5;exitY=1;exitDx=0;exitDy=0;strokeWidth=2;" edge="1" parent="3JynUb4Shd6j02WHetgl-1" source="ULxVSvxl0H2O9ZRTXCv_-6" target="ULxVSvxl0H2O9ZRTXCv_-7">
          <mxGeometry width="50" height="50" relative="1" as="geometry">
            <mxPoint x="555.5" y="370" as="sourcePoint" />
            <mxPoint x="555.5" y="390" as="targetPoint" />
          </mxGeometry>
        </mxCell>
        <mxCell id="ULxVSvxl0H2O9ZRTXCv_-13" value="" style="endArrow=classic;html=1;strokeColor=default;labelBackgroundColor=default;fontColor=default;fillColor=default;entryX=0.5;entryY=0;entryDx=0;entryDy=0;exitX=0.5;exitY=1;exitDx=0;exitDy=0;strokeWidth=2;" edge="1" parent="3JynUb4Shd6j02WHetgl-1" source="ULxVSvxl0H2O9ZRTXCv_-7" target="ULxVSvxl0H2O9ZRTXCv_-8">
          <mxGeometry width="50" height="50" relative="1" as="geometry">
            <mxPoint x="555.5" y="420" as="sourcePoint" />
            <mxPoint x="555.5" y="440" as="targetPoint" />
          </mxGeometry>
        </mxCell>
        <mxCell id="ULxVSvxl0H2O9ZRTXCv_-14" value="" style="endArrow=classic;html=1;strokeColor=default;labelBackgroundColor=default;fontColor=default;fillColor=default;entryX=0.5;entryY=0;entryDx=0;entryDy=0;exitX=0.5;exitY=1;exitDx=0;exitDy=0;strokeWidth=2;" edge="1" parent="3JynUb4Shd6j02WHetgl-1" source="ULxVSvxl0H2O9ZRTXCv_-8" target="ULxVSvxl0H2O9ZRTXCv_-9">
          <mxGeometry width="50" height="50" relative="1" as="geometry">
            <mxPoint x="555.5" y="470" as="sourcePoint" />
            <mxPoint x="555.5" y="490" as="targetPoint" />
          </mxGeometry>
        </mxCell>
        <mxCell id="ULxVSvxl0H2O9ZRTXCv_-15" value="" style="endArrow=classic;html=1;entryX=0.5;entryY=0;entryDx=0;entryDy=0;strokeColor=default;labelBackgroundColor=default;fontColor=default;strokeWidth=2;" edge="1" parent="3JynUb4Shd6j02WHetgl-1">
          <mxGeometry width="50" height="50" relative="1" as="geometry">
            <mxPoint x="392" y="270" as="sourcePoint" />
            <mxPoint x="392" y="540" as="targetPoint" />
          </mxGeometry>
        </mxCell>
        <mxCell id="ULxVSvxl0H2O9ZRTXCv_-16" value="" style="endArrow=classic;html=1;strokeColor=default;labelBackgroundColor=default;fontColor=default;strokeWidth=2;" edge="1" parent="3JynUb4Shd6j02WHetgl-1">
          <mxGeometry width="50" height="50" relative="1" as="geometry">
            <mxPoint x="391.71" y="564" as="sourcePoint" />
            <mxPoint x="392" y="590" as="targetPoint" />
          </mxGeometry>
        </mxCell>
        <mxCell id="ULxVSvxl0H2O9ZRTXCv_-20" value="" style="endArrow=classic;html=1;strokeColor=default;labelBackgroundColor=default;fontColor=default;strokeWidth=2;" edge="1" parent="3JynUb4Shd6j02WHetgl-1">
          <mxGeometry width="50" height="50" relative="1" as="geometry">
            <mxPoint x="391.5" y="614" as="sourcePoint" />
            <mxPoint x="391.5" y="644" as="targetPoint" />
          </mxGeometry>
        </mxCell>
        <mxCell id="ULxVSvxl0H2O9ZRTXCv_-21" value="" style="endArrow=classic;html=1;entryX=0.5;entryY=0;entryDx=0;entryDy=0;strokeColor=default;labelBackgroundColor=default;fontColor=default;strokeWidth=2;" edge="1" parent="3JynUb4Shd6j02WHetgl-1" target="ULxVSvxl0H2O9ZRTXCv_-2">
          <mxGeometry width="50" height="50" relative="1" as="geometry">
            <mxPoint x="392" y="140" as="sourcePoint" />
            <mxPoint x="442" y="70" as="targetPoint" />
          </mxGeometry>
        </mxCell>
        <mxCell id="ULxVSvxl0H2O9ZRTXCv_-23" value="&lt;font face=&quot;Times New Roman&quot; style=&quot;font-size: 18px&quot;&gt;$$&lt;br&gt;X$$&lt;/font&gt;" style="text;html=1;strokeColor=none;fillColor=none;align=center;verticalAlign=middle;whiteSpace=wrap;rounded=0;labelBackgroundColor=none;fontColor=default;" vertex="1" parent="3JynUb4Shd6j02WHetgl-1">
          <mxGeometry x="372" y="117" width="40" height="20" as="geometry" />
        </mxCell>
        <mxCell id="ULxVSvxl0H2O9ZRTXCv_-24" value="$$L{\times}C$$" style="text;html=1;strokeColor=none;fillColor=none;align=center;verticalAlign=middle;whiteSpace=wrap;rounded=0;labelBackgroundColor=none;fontColor=default;" vertex="1" parent="3JynUb4Shd6j02WHetgl-1">
          <mxGeometry x="463" y="254" width="40" height="20" as="geometry" />
        </mxCell>
        <mxCell id="ULxVSvxl0H2O9ZRTXCv_-25" value="$$1{\times}C$$" style="text;html=1;strokeColor=none;fillColor=default;align=center;verticalAlign=middle;whiteSpace=wrap;rounded=0;labelBackgroundColor=none;fontColor=default;" vertex="1" parent="3JynUb4Shd6j02WHetgl-1">
          <mxGeometry x="595" y="310" width="40" height="20" as="geometry" />
        </mxCell>
        <mxCell id="ULxVSvxl0H2O9ZRTXCv_-26" value="$$1{\times}\frac{C}{r}$$" style="text;html=1;strokeColor=none;fillColor=default;align=center;verticalAlign=middle;whiteSpace=wrap;rounded=0;labelBackgroundColor=none;fontColor=default;" vertex="1" parent="3JynUb4Shd6j02WHetgl-1">
          <mxGeometry x="597" y="374" width="40" height="20" as="geometry" />
        </mxCell>
        <mxCell id="ULxVSvxl0H2O9ZRTXCv_-27" value="$$1{\times}\frac{C}{r}$$" style="text;html=1;strokeColor=none;fillColor=default;align=center;verticalAlign=middle;whiteSpace=wrap;rounded=0;labelBackgroundColor=none;fontColor=default;" vertex="1" parent="3JynUb4Shd6j02WHetgl-1">
          <mxGeometry x="595" y="437" width="40" height="20" as="geometry" />
        </mxCell>
        <mxCell id="ULxVSvxl0H2O9ZRTXCv_-28" value="$$1{\times}C$$" style="text;html=1;strokeColor=none;fillColor=default;align=center;verticalAlign=middle;whiteSpace=wrap;rounded=0;labelBackgroundColor=none;fontColor=default;" vertex="1" parent="3JynUb4Shd6j02WHetgl-1">
          <mxGeometry x="595" y="496" width="40" height="20" as="geometry" />
        </mxCell>
        <mxCell id="ULxVSvxl0H2O9ZRTXCv_-29" value="$$1{\times}C$$" style="text;html=1;strokeColor=none;fillColor=default;align=center;verticalAlign=middle;whiteSpace=wrap;rounded=0;labelBackgroundColor=none;fontColor=default;" vertex="1" parent="3JynUb4Shd6j02WHetgl-1">
          <mxGeometry x="595" y="557" width="40" height="20" as="geometry" />
        </mxCell>
        <mxCell id="ULxVSvxl0H2O9ZRTXCv_-30" value="$$L{\times}C$$" style="text;html=1;strokeColor=none;fillColor=none;align=center;verticalAlign=middle;whiteSpace=wrap;rounded=0;labelBackgroundColor=none;fontColor=default;" vertex="1" parent="3JynUb4Shd6j02WHetgl-1">
          <mxGeometry x="404" y="564" width="40" height="20" as="geometry" />
        </mxCell>
        <mxCell id="ULxVSvxl0H2O9ZRTXCv_-31" value="$$L{\times}C$$" style="text;html=1;strokeColor=none;fillColor=none;align=center;verticalAlign=middle;whiteSpace=wrap;rounded=0;labelBackgroundColor=none;fontColor=default;" vertex="1" parent="3JynUb4Shd6j02WHetgl-1">
          <mxGeometry x="404" y="614" width="40" height="20" as="geometry" />
        </mxCell>
        <mxCell id="ULxVSvxl0H2O9ZRTXCv_-32" value="&lt;font face=&quot;Times New Roman&quot; style=&quot;font-size: 18px&quot;&gt;$$X^{&#39;}$$&lt;/font&gt;" style="text;html=1;strokeColor=none;fillColor=none;align=center;verticalAlign=middle;whiteSpace=wrap;rounded=0;labelBackgroundColor=none;fontColor=default;" vertex="1" parent="3JynUb4Shd6j02WHetgl-1">
          <mxGeometry x="372" y="646" width="40" height="20" as="geometry" />
        </mxCell>
        <mxCell id="ULxVSvxl0H2O9ZRTXCv_-34" value="" style="edgeStyle=elbowEdgeStyle;elbow=horizontal;endArrow=classic;html=1;rounded=0;labelBackgroundColor=default;fontFamily=Times New Roman;fontSize=15;fontColor=default;strokeColor=default;strokeWidth=2;fillColor=default;entryX=0;entryY=0;entryDx=0;entryDy=0;" edge="1" parent="3JynUb4Shd6j02WHetgl-1" target="y80BbPav3G4LZEtt8_cu-4">
          <mxGeometry width="50" height="50" relative="1" as="geometry">
            <mxPoint x="392" y="160" as="sourcePoint" />
            <mxPoint x="382" y="610" as="targetPoint" />
            <Array as="points">
              <mxPoint x="300" y="380" />
            </Array>
          </mxGeometry>
        </mxCell>
        <mxCell id="y80BbPav3G4LZEtt8_cu-4" value="" style="shape=sumEllipse;perimeter=ellipsePerimeter;whiteSpace=wrap;html=1;backgroundOutline=1;fontColor=default;rotation=-45;fillColor=default;strokeColor=default;strokeWidth=2;" vertex="1" parent="3JynUb4Shd6j02WHetgl-1">
          <mxGeometry x="380.0000000000001" y="590" width="24" height="24" as="geometry" />
        </mxCell>
        <mxCell id="y80BbPav3G4LZEtt8_cu-6" value="" style="shape=sumEllipse;perimeter=ellipsePerimeter;whiteSpace=wrap;html=1;backgroundOutline=1;fontColor=default;rotation=-90;fillColor=default;strokeColor=default;strokeWidth=2;" vertex="1" parent="3JynUb4Shd6j02WHetgl-1">
          <mxGeometry x="452.00000000000034" y="540" width="24" height="24" as="geometry" />
        </mxCell>
        <mxCell id="y80BbPav3G4LZEtt8_cu-7" value="" style="endArrow=classic;html=1;rounded=0;labelBackgroundColor=default;fontFamily=Times New Roman;fontSize=15;fontColor=default;strokeColor=default;strokeWidth=2;fillColor=default;exitX=0;exitY=0.5;exitDx=0;exitDy=0;entryX=1;entryY=0.5;entryDx=0;entryDy=0;" edge="1" parent="3JynUb4Shd6j02WHetgl-1" source="ULxVSvxl0H2O9ZRTXCv_-5" target="y80BbPav3G4LZEtt8_cu-6">
          <mxGeometry width="50" height="50" relative="1" as="geometry">
            <mxPoint x="476" y="350" as="sourcePoint" />
            <mxPoint x="406" y="440" as="targetPoint" />
          </mxGeometry>
        </mxCell>
        <mxCell id="y80BbPav3G4LZEtt8_cu-9" value="" style="endArrow=classic;html=1;strokeColor=default;labelBackgroundColor=default;fontColor=default;exitX=0.5;exitY=0;exitDx=0;exitDy=0;strokeWidth=2;" edge="1" parent="3JynUb4Shd6j02WHetgl-1" source="y80BbPav3G4LZEtt8_cu-6">
          <mxGeometry width="50" height="50" relative="1" as="geometry">
            <mxPoint x="446" y="551.58" as="sourcePoint" />
            <mxPoint x="404" y="552" as="targetPoint" />
          </mxGeometry>
        </mxCell>
        <mxCell id="y80BbPav3G4LZEtt8_cu-13" value="" style="group" vertex="1" connectable="0" parent="3JynUb4Shd6j02WHetgl-1">
          <mxGeometry x="376.05000000000035" y="536.0500000000001" width="31.89422517065634" height="31.894225170656455" as="geometry" />
        </mxCell>
        <mxCell id="y80BbPav3G4LZEtt8_cu-2" value="" style="ellipse;whiteSpace=wrap;html=1;aspect=fixed;fontColor=default;fillColor=default;strokeColor=default;rotation=65;spacing=2;strokeWidth=2;" vertex="1" parent="y80BbPav3G4LZEtt8_cu-13">
          <mxGeometry x="3.9471125853281706" y="3.9471125853282274" width="24" height="24" as="geometry" />
        </mxCell>
        <mxCell id="y80BbPav3G4LZEtt8_cu-3" value="" style="edgeStyle=isometricEdgeStyle;endArrow=none;html=1;rounded=0;labelBackgroundColor=default;fontColor=default;strokeColor=default;fillColor=default;strokeWidth=2;" edge="1" parent="y80BbPav3G4LZEtt8_cu-13">
          <mxGeometry x="3.9471125853281706" y="3.9471125853282274" width="50" height="100" as="geometry">
            <mxPoint x="6.9471125853281706" y="14.947112585328227" as="sourcePoint" />
            <mxPoint x="24.94711258532817" y="16.947112585328227" as="targetPoint" />
            <Array as="points" />
          </mxGeometry>
        </mxCell>
        <mxCell id="3VSQnsYCzUcWAEESe-RX-0" value="&lt;font style=&quot;font-size: 18px&quot;&gt;&lt;b&gt;Shortcut&lt;/b&gt;&lt;/font&gt;" style="text;html=1;strokeColor=none;fillColor=none;align=center;verticalAlign=middle;whiteSpace=wrap;rounded=0;labelBackgroundColor=none;labelBorderColor=none;fontFamily=Times New Roman;fontSize=15;fontColor=default;rotation=-90;" vertex="1" parent="3JynUb4Shd6j02WHetgl-1">
          <mxGeometry x="247" y="364" width="60" height="30" as="geometry" />
        </mxCell>
      </root>
    </mxGraphModel>
  </diagram>
  <diagram id="pCjgxDo88NlvAH7pMhpk" name="Page-4">
    <mxGraphModel dx="1221" dy="644" grid="1" gridSize="10" guides="1" tooltips="1" connect="1" arrows="1" fold="1" page="1" pageScale="1" pageWidth="1300" pageHeight="800" math="1" shadow="0">
      <root>
        <mxCell id="LHd0c6UBnbNzNuGOzBoY-0" />
        <mxCell id="LHd0c6UBnbNzNuGOzBoY-1" parent="LHd0c6UBnbNzNuGOzBoY-0" />
        <mxCell id="jI5P4DNn5yyx2Yc8kIff-13" value="" style="shape=orEllipse;perimeter=ellipsePerimeter;whiteSpace=wrap;html=1;backgroundOutline=1;labelBackgroundColor=default;fontFamily=Times New Roman;fontSize=16;fontColor=default;strokeColor=default;fillColor=default;strokeWidth=2;" vertex="1" parent="LHd0c6UBnbNzNuGOzBoY-1">
          <mxGeometry x="299.99999999999994" y="587.5" width="25" height="25" as="geometry" />
        </mxCell>
        <mxCell id="jI5P4DNn5yyx2Yc8kIff-23" value="" style="rounded=0;whiteSpace=wrap;html=1;labelBackgroundColor=default;labelBorderColor=none;fontFamily=Times New Roman;fontSize=18;fontColor=default;strokeColor=default;strokeWidth=2;fillColor=default;gradientColor=none;" vertex="1" parent="LHd0c6UBnbNzNuGOzBoY-1">
          <mxGeometry x="150" y="580" width="120" height="40" as="geometry" />
        </mxCell>
        <mxCell id="jI5P4DNn5yyx2Yc8kIff-24" value="" style="endArrow=none;html=1;rounded=0;labelBackgroundColor=default;fontFamily=Times New Roman;fontSize=18;fontColor=default;strokeColor=default;strokeWidth=2;fillColor=default;" edge="1" parent="LHd0c6UBnbNzNuGOzBoY-1">
          <mxGeometry width="50" height="50" relative="1" as="geometry">
            <mxPoint x="230" y="620" as="sourcePoint" />
            <mxPoint x="230" y="580" as="targetPoint" />
          </mxGeometry>
        </mxCell>
        <mxCell id="jI5P4DNn5yyx2Yc8kIff-25" value="$$WA$$" style="text;html=1;strokeColor=none;fillColor=default;align=center;verticalAlign=middle;whiteSpace=wrap;rounded=0;labelBackgroundColor=none;labelBorderColor=none;fontFamily=Times New Roman;fontSize=18;fontColor=default;" vertex="1" parent="LHd0c6UBnbNzNuGOzBoY-1">
          <mxGeometry x="160" y="585" width="60" height="30" as="geometry" />
        </mxCell>
        <mxCell id="ClxTWh-3kVTuwAOCdKHI-3" value="$$\circ{A}$$" style="text;html=1;strokeColor=none;fillColor=none;align=center;verticalAlign=middle;whiteSpace=wrap;rounded=0;labelBackgroundColor=none;labelBorderColor=none;fontFamily=Times New Roman;fontSize=18;fontColor=default;" vertex="1" parent="LHd0c6UBnbNzNuGOzBoY-1">
          <mxGeometry x="220" y="585" width="60" height="30" as="geometry" />
        </mxCell>
        <mxCell id="ClxTWh-3kVTuwAOCdKHI-4" value="" style="endArrow=classic;html=1;rounded=0;labelBackgroundColor=default;fontFamily=Times New Roman;fontSize=18;fontColor=default;strokeColor=default;strokeWidth=2;fillColor=default;" edge="1" parent="LHd0c6UBnbNzNuGOzBoY-1">
          <mxGeometry width="50" height="50" relative="1" as="geometry">
            <mxPoint x="90" y="600" as="sourcePoint" />
            <mxPoint x="150" y="600" as="targetPoint" />
          </mxGeometry>
        </mxCell>
        <mxCell id="ClxTWh-3kVTuwAOCdKHI-5" value="$$X$$" style="text;html=1;strokeColor=none;fillColor=none;align=center;verticalAlign=middle;whiteSpace=wrap;rounded=0;labelBackgroundColor=none;labelBorderColor=none;fontFamily=Times New Roman;fontSize=18;fontColor=default;" vertex="1" parent="LHd0c6UBnbNzNuGOzBoY-1">
          <mxGeometry x="40" y="585" width="60" height="30" as="geometry" />
        </mxCell>
        <mxCell id="uQjGx1aq2OLsYoYb4ynG-0" value="" style="endArrow=classic;html=1;rounded=0;labelBackgroundColor=default;fontFamily=Times New Roman;fontSize=18;fontColor=default;strokeColor=default;strokeWidth=2;fillColor=default;" edge="1" parent="LHd0c6UBnbNzNuGOzBoY-1">
          <mxGeometry width="50" height="50" relative="1" as="geometry">
            <mxPoint x="270" y="599.58" as="sourcePoint" />
            <mxPoint x="300" y="599.58" as="targetPoint" />
          </mxGeometry>
        </mxCell>
        <mxCell id="uQjGx1aq2OLsYoYb4ynG-2" value="" style="endArrow=classic;html=1;rounded=0;labelBackgroundColor=default;fontFamily=Times New Roman;fontSize=18;fontColor=default;strokeColor=default;strokeWidth=2;fillColor=default;" edge="1" parent="LHd0c6UBnbNzNuGOzBoY-1">
          <mxGeometry width="50" height="50" relative="1" as="geometry">
            <mxPoint x="325" y="599.58" as="sourcePoint" />
            <mxPoint x="380" y="600" as="targetPoint" />
          </mxGeometry>
        </mxCell>
        <mxCell id="uQjGx1aq2OLsYoYb4ynG-3" value="" style="edgeStyle=elbowEdgeStyle;elbow=vertical;endArrow=classic;html=1;rounded=0;labelBackgroundColor=default;fontFamily=Times New Roman;fontSize=18;fontColor=default;strokeColor=default;strokeWidth=2;fillColor=default;entryX=0.5;entryY=0;entryDx=0;entryDy=0;" edge="1" parent="LHd0c6UBnbNzNuGOzBoY-1" target="jI5P4DNn5yyx2Yc8kIff-13">
          <mxGeometry width="50" height="50" relative="1" as="geometry">
            <mxPoint x="120" y="600" as="sourcePoint" />
            <mxPoint x="190" y="540" as="targetPoint" />
            <Array as="points">
              <mxPoint x="220" y="560" />
            </Array>
          </mxGeometry>
        </mxCell>
        <mxCell id="cVD6BAaKiBcJPVoZkJvx-0" value="" style="rounded=0;whiteSpace=wrap;html=1;labelBackgroundColor=default;labelBorderColor=none;fontFamily=Times New Roman;fontSize=18;fontColor=default;strokeColor=default;strokeWidth=2;fillColor=default;gradientColor=none;" vertex="1" parent="LHd0c6UBnbNzNuGOzBoY-1">
          <mxGeometry x="381" y="580" width="120" height="40" as="geometry" />
        </mxCell>
        <mxCell id="cVD6BAaKiBcJPVoZkJvx-1" value="" style="endArrow=none;html=1;rounded=0;labelBackgroundColor=default;fontFamily=Times New Roman;fontSize=18;fontColor=default;strokeColor=default;strokeWidth=2;fillColor=default;" edge="1" parent="LHd0c6UBnbNzNuGOzBoY-1">
          <mxGeometry width="50" height="50" relative="1" as="geometry">
            <mxPoint x="461" y="620" as="sourcePoint" />
            <mxPoint x="461" y="580" as="targetPoint" />
          </mxGeometry>
        </mxCell>
        <mxCell id="cVD6BAaKiBcJPVoZkJvx-2" value="$$WA$$" style="text;html=1;strokeColor=none;fillColor=default;align=center;verticalAlign=middle;whiteSpace=wrap;rounded=0;labelBackgroundColor=none;labelBorderColor=none;fontFamily=Times New Roman;fontSize=18;fontColor=default;" vertex="1" parent="LHd0c6UBnbNzNuGOzBoY-1">
          <mxGeometry x="391" y="585" width="60" height="30" as="geometry" />
        </mxCell>
        <mxCell id="cVD6BAaKiBcJPVoZkJvx-9" value="" style="rounded=0;whiteSpace=wrap;html=1;labelBackgroundColor=default;labelBorderColor=none;fontFamily=Times New Roman;fontSize=18;fontColor=default;strokeColor=default;strokeWidth=2;fillColor=default;gradientColor=none;" vertex="1" parent="LHd0c6UBnbNzNuGOzBoY-1">
          <mxGeometry x="650" y="580" width="120" height="40" as="geometry" />
        </mxCell>
        <mxCell id="cVD6BAaKiBcJPVoZkJvx-10" value="" style="endArrow=none;html=1;rounded=0;labelBackgroundColor=default;fontFamily=Times New Roman;fontSize=18;fontColor=default;strokeColor=default;strokeWidth=2;fillColor=default;" edge="1" parent="LHd0c6UBnbNzNuGOzBoY-1">
          <mxGeometry width="50" height="50" relative="1" as="geometry">
            <mxPoint x="730" y="620" as="sourcePoint" />
            <mxPoint x="730" y="580" as="targetPoint" />
          </mxGeometry>
        </mxCell>
        <mxCell id="cVD6BAaKiBcJPVoZkJvx-11" value="$$WA$$" style="text;html=1;strokeColor=none;fillColor=default;align=center;verticalAlign=middle;whiteSpace=wrap;rounded=0;labelBackgroundColor=none;labelBorderColor=none;fontFamily=Times New Roman;fontSize=18;fontColor=default;" vertex="1" parent="LHd0c6UBnbNzNuGOzBoY-1">
          <mxGeometry x="660" y="585" width="60" height="30" as="geometry" />
        </mxCell>
        <mxCell id="cVD6BAaKiBcJPVoZkJvx-16" value="" style="shape=orEllipse;perimeter=ellipsePerimeter;whiteSpace=wrap;html=1;backgroundOutline=1;labelBackgroundColor=default;fontFamily=Times New Roman;fontSize=16;fontColor=default;strokeColor=default;fillColor=default;strokeWidth=2;" vertex="1" parent="LHd0c6UBnbNzNuGOzBoY-1">
          <mxGeometry x="531" y="587.5" width="25" height="25" as="geometry" />
        </mxCell>
        <mxCell id="cVD6BAaKiBcJPVoZkJvx-17" value="" style="endArrow=classic;html=1;rounded=0;labelBackgroundColor=default;fontFamily=Times New Roman;fontSize=18;fontColor=default;strokeColor=default;strokeWidth=2;fillColor=default;" edge="1" parent="LHd0c6UBnbNzNuGOzBoY-1">
          <mxGeometry width="50" height="50" relative="1" as="geometry">
            <mxPoint x="501" y="599.5799999999999" as="sourcePoint" />
            <mxPoint x="531" y="599.5799999999999" as="targetPoint" />
          </mxGeometry>
        </mxCell>
        <mxCell id="cVD6BAaKiBcJPVoZkJvx-18" value="" style="endArrow=classic;html=1;rounded=0;labelBackgroundColor=default;fontFamily=Times New Roman;fontSize=18;fontColor=default;strokeColor=default;strokeWidth=2;fillColor=default;exitX=1;exitY=0.5;exitDx=0;exitDy=0;" edge="1" parent="LHd0c6UBnbNzNuGOzBoY-1" source="cVD6BAaKiBcJPVoZkJvx-16">
          <mxGeometry width="50" height="50" relative="1" as="geometry">
            <mxPoint x="560" y="600" as="sourcePoint" />
            <mxPoint x="590" y="600" as="targetPoint" />
          </mxGeometry>
        </mxCell>
        <mxCell id="cVD6BAaKiBcJPVoZkJvx-23" value="" style="shape=orEllipse;perimeter=ellipsePerimeter;whiteSpace=wrap;html=1;backgroundOutline=1;labelBackgroundColor=default;fontFamily=Times New Roman;fontSize=16;fontColor=default;strokeColor=default;fillColor=default;strokeWidth=2;" vertex="1" parent="LHd0c6UBnbNzNuGOzBoY-1">
          <mxGeometry x="800" y="587.5" width="25" height="25" as="geometry" />
        </mxCell>
        <mxCell id="cVD6BAaKiBcJPVoZkJvx-24" value="" style="endArrow=classic;html=1;rounded=0;labelBackgroundColor=default;fontFamily=Times New Roman;fontSize=18;fontColor=default;strokeColor=default;strokeWidth=2;fillColor=default;" edge="1" parent="LHd0c6UBnbNzNuGOzBoY-1">
          <mxGeometry width="50" height="50" relative="1" as="geometry">
            <mxPoint x="770" y="599.5799999999999" as="sourcePoint" />
            <mxPoint x="800" y="599.5799999999999" as="targetPoint" />
          </mxGeometry>
        </mxCell>
        <mxCell id="cVD6BAaKiBcJPVoZkJvx-35" value="" style="rounded=0;whiteSpace=wrap;html=1;labelBackgroundColor=default;labelBorderColor=none;fontFamily=Times New Roman;fontSize=18;fontColor=default;strokeColor=default;strokeWidth=2;fillColor=default;gradientColor=none;" vertex="1" parent="LHd0c6UBnbNzNuGOzBoY-1">
          <mxGeometry x="880" y="580" width="120" height="40" as="geometry" />
        </mxCell>
        <mxCell id="cVD6BAaKiBcJPVoZkJvx-37" value="$$F(A)+X$$" style="text;html=1;strokeColor=none;fillColor=default;align=center;verticalAlign=middle;whiteSpace=wrap;rounded=0;labelBackgroundColor=none;labelBorderColor=none;fontFamily=Times New Roman;fontSize=18;fontColor=default;" vertex="1" parent="LHd0c6UBnbNzNuGOzBoY-1">
          <mxGeometry x="890" y="585" width="100" height="30" as="geometry" />
        </mxCell>
        <mxCell id="cVD6BAaKiBcJPVoZkJvx-38" value="" style="endArrow=classic;html=1;rounded=0;labelBackgroundColor=default;fontFamily=Times New Roman;fontSize=18;fontColor=default;strokeColor=default;strokeWidth=2;fillColor=default;" edge="1" parent="LHd0c6UBnbNzNuGOzBoY-1">
          <mxGeometry width="50" height="50" relative="1" as="geometry">
            <mxPoint x="1000" y="599.58" as="sourcePoint" />
            <mxPoint x="1050" y="599.58" as="targetPoint" />
          </mxGeometry>
        </mxCell>
        <mxCell id="cVD6BAaKiBcJPVoZkJvx-40" value="$$\circ{A}$$" style="text;html=1;strokeColor=none;fillColor=none;align=center;verticalAlign=middle;whiteSpace=wrap;rounded=0;labelBackgroundColor=none;labelBorderColor=none;fontFamily=Times New Roman;fontSize=18;fontColor=default;" vertex="1" parent="LHd0c6UBnbNzNuGOzBoY-1">
          <mxGeometry x="451" y="585" width="60" height="30" as="geometry" />
        </mxCell>
        <mxCell id="cVD6BAaKiBcJPVoZkJvx-43" value="" style="endArrow=classic;html=1;rounded=0;labelBackgroundColor=default;fontFamily=Times New Roman;fontSize=18;fontColor=default;strokeColor=default;strokeWidth=2;fillColor=default;exitX=1;exitY=0.5;exitDx=0;exitDy=0;" edge="1" parent="LHd0c6UBnbNzNuGOzBoY-1">
          <mxGeometry width="50" height="50" relative="1" as="geometry">
            <mxPoint x="825" y="599.5799999999999" as="sourcePoint" />
            <mxPoint x="879" y="599.5799999999999" as="targetPoint" />
          </mxGeometry>
        </mxCell>
        <mxCell id="cVD6BAaKiBcJPVoZkJvx-44" value="" style="edgeStyle=elbowEdgeStyle;elbow=vertical;endArrow=classic;html=1;rounded=0;labelBackgroundColor=default;fontFamily=Times New Roman;fontSize=18;fontColor=default;strokeColor=default;strokeWidth=2;fillColor=default;entryX=0.5;entryY=0;entryDx=0;entryDy=0;" edge="1" parent="LHd0c6UBnbNzNuGOzBoY-1">
          <mxGeometry width="50" height="50" relative="1" as="geometry">
            <mxPoint x="120" y="560" as="sourcePoint" />
            <mxPoint x="543" y="587.5" as="targetPoint" />
            <Array as="points">
              <mxPoint x="330" y="550" />
            </Array>
          </mxGeometry>
        </mxCell>
        <mxCell id="cVD6BAaKiBcJPVoZkJvx-45" value="" style="edgeStyle=elbowEdgeStyle;elbow=vertical;endArrow=classic;html=1;rounded=0;labelBackgroundColor=default;fontFamily=Times New Roman;fontSize=18;fontColor=default;strokeColor=default;strokeWidth=2;fillColor=default;entryX=0.5;entryY=0;entryDx=0;entryDy=0;" edge="1" parent="LHd0c6UBnbNzNuGOzBoY-1">
          <mxGeometry width="50" height="50" relative="1" as="geometry">
            <mxPoint x="120" y="550" as="sourcePoint" />
            <mxPoint x="812" y="587.5" as="targetPoint" />
            <Array as="points">
              <mxPoint x="460" y="540" />
            </Array>
          </mxGeometry>
        </mxCell>
        <mxCell id="cVD6BAaKiBcJPVoZkJvx-47" value="" style="endArrow=classic;html=1;rounded=0;labelBackgroundColor=default;fontFamily=Times New Roman;fontSize=18;fontColor=default;strokeColor=default;strokeWidth=2;fillColor=default;exitX=1;exitY=0.5;exitDx=0;exitDy=0;" edge="1" parent="LHd0c6UBnbNzNuGOzBoY-1">
          <mxGeometry width="50" height="50" relative="1" as="geometry">
            <mxPoint x="616" y="599.58" as="sourcePoint" />
            <mxPoint x="650" y="599.58" as="targetPoint" />
          </mxGeometry>
        </mxCell>
        <mxCell id="cVD6BAaKiBcJPVoZkJvx-48" value="&lt;b&gt;&lt;font style=&quot;font-size: 24px&quot;&gt;...&lt;/font&gt;&lt;/b&gt;" style="text;html=1;strokeColor=none;fillColor=none;align=center;verticalAlign=middle;whiteSpace=wrap;rounded=0;labelBackgroundColor=none;labelBorderColor=none;fontFamily=Times New Roman;fontSize=18;fontColor=default;" vertex="1" parent="LHd0c6UBnbNzNuGOzBoY-1">
          <mxGeometry x="572" y="578" width="60" height="30" as="geometry" />
        </mxCell>
        <mxCell id="cVD6BAaKiBcJPVoZkJvx-50" value="&lt;font style=&quot;font-size: 18px&quot;&gt;$$Y$$&lt;/font&gt;" style="text;html=1;strokeColor=none;fillColor=none;align=center;verticalAlign=middle;whiteSpace=wrap;rounded=0;labelBackgroundColor=none;labelBorderColor=none;fontFamily=Times New Roman;fontSize=24;fontColor=default;" vertex="1" parent="LHd0c6UBnbNzNuGOzBoY-1">
          <mxGeometry x="1040" y="585" width="60" height="30" as="geometry" />
        </mxCell>
        <mxCell id="cVD6BAaKiBcJPVoZkJvx-51" value="$$\circ{A}$$" style="text;html=1;strokeColor=none;fillColor=none;align=center;verticalAlign=middle;whiteSpace=wrap;rounded=0;labelBackgroundColor=none;labelBorderColor=none;fontFamily=Times New Roman;fontSize=18;fontColor=default;" vertex="1" parent="LHd0c6UBnbNzNuGOzBoY-1">
          <mxGeometry x="720" y="585" width="60" height="30" as="geometry" />
        </mxCell>
      </root>
    </mxGraphModel>
  </diagram>
</mxfile>
